<svg version="1.1" id="Layer_1" xmlns="http://www.w3.org/2000/svg" xmlns:xlink="http://www.w3.org/1999/xlink" x="0px" y="0px"
	 width="100%" viewBox="0 0 550 550" enable-background="new 0 0 550 550" xml:space="preserve">
<path fill="#FEFEFE" opacity="1.000000" stroke="none" 
	d="
M551.000000,138.000000 
	C551.000000,275.999969 551.000000,413.499969 551.000000,551.000000 
	C367.666718,551.000000 184.333405,551.000000 1.000086,551.000000 
	C1.000057,367.666718 1.000057,184.333450 1.000029,1.000135 
	C184.333252,1.000090 367.666504,1.000090 550.999878,1.000045 
	C551.000000,46.500000 551.000000,92.000000 551.000000,138.000000 
M535.942444,270.375488 
	C536.054749,269.999817 536.167053,269.624146 536.936218,268.909698 
	C537.570984,266.413025 538.749573,263.918304 538.758484,261.419373 
	C538.880371,227.381180 538.878906,193.342255 538.761108,159.304031 
	C538.752441,156.802734 537.615967,154.305344 536.904663,151.122055 
	C535.610779,150.406616 534.316833,149.691177 532.918335,148.333740 
	C532.263245,147.895538 531.608093,147.457336 530.430298,147.118271 
	C530.263306,147.177948 530.096313,147.237640 529.014038,147.136169 
	C494.738953,147.125366 460.463837,147.107300 426.188782,147.128723 
	C424.732086,147.129639 423.275574,147.496368 421.092621,147.687469 
	C419.650085,148.434265 418.207550,149.181061 416.200958,150.318359 
	C415.488647,152.231949 414.776337,154.145554 413.999573,156.987106 
	C413.931702,188.328568 413.863800,219.670044 413.461121,251.193817 
	C413.253174,251.353134 413.104553,251.555923 412.150848,251.970062 
	C410.099670,251.931625 408.048462,251.893204 405.992432,250.942215 
	C405.992279,220.778244 406.016022,190.614227 405.947113,160.450424 
	C405.941528,158.006607 405.300385,155.564224 404.920410,152.434021 
	C403.125366,151.355118 401.330292,150.276215 398.806244,148.943405 
	C397.099945,148.330383 395.399719,147.206345 393.686340,147.185944 
	C381.027283,147.034958 368.365570,147.103653 355.704712,147.103790 
	C334.714325,147.104019 313.723907,147.073380 292.733612,147.122391 
	C285.531250,147.139206 282.777130,149.329437 280.866180,156.939911 
	C280.915405,189.106903 280.964600,221.273895 280.639923,253.991104 
	C273.621826,268.767334 273.253113,283.483826 280.888855,299.030365 
	C280.921722,332.022034 280.954559,365.013672 280.814880,398.681030 
	C281.466156,399.850037 282.117462,401.019073 282.794708,402.797913 
	C283.131165,403.263184 283.467590,403.728485 284.178833,404.838745 
	C286.475525,405.560913 288.769928,406.903564 291.069214,406.911896 
	C323.756500,407.030487 356.444397,406.968384 389.585052,407.561401 
	C389.437012,410.066040 389.288971,412.570648 388.177826,415.017700 
	C356.387390,415.014374 324.596924,414.990234 292.806519,415.021515 
	C284.264099,415.029938 280.787933,418.621735 280.752472,427.207520 
	C280.725677,433.698425 280.709259,440.189423 279.966919,446.660980 
	C277.651672,445.713959 275.336426,444.766907 273.018890,442.907074 
	C273.229126,436.108368 273.724304,429.300964 273.517944,422.514923 
	C273.427643,419.545135 272.600342,416.040955 267.452454,415.642792 
	C266.148346,415.420990 264.844086,415.005829 263.540131,415.006561 
	C245.441559,415.016815 227.343033,415.084045 208.628723,414.803894 
	C205.987411,412.237671 203.346100,409.671448 201.693405,407.018158 
	C221.310333,407.014191 240.927353,407.035492 260.544037,406.962189 
	C262.261963,406.955750 263.977570,406.328461 266.275787,406.155670 
	C268.791077,407.534180 269.066803,405.983948 269.669525,404.069702 
	C272.701691,405.002960 272.634552,402.741394 273.141602,400.077179 
	C273.370789,398.451630 273.798126,396.826324 273.799988,395.200531 
	C273.838684,361.267059 273.843781,327.333496 273.787598,293.400085 
	C273.784698,291.642303 273.177704,289.885468 272.796265,287.412201 
	C270.917450,282.612274 267.460205,280.997559 262.298370,281.023560 
	C228.150833,281.195587 194.001892,281.075317 159.853851,281.186462 
	C157.306122,281.194733 154.761841,282.264618 152.072372,281.956940 
	C152.403503,278.518890 152.734634,275.080841 153.170364,272.061432 
	C153.329758,272.302521 153.452484,272.561035 154.313660,272.924438 
	C154.573303,272.938263 154.832947,272.952057 156.013382,273.080780 
	C182.397995,273.149872 208.782578,273.250275 235.167236,273.272278 
	C245.450806,273.280853 255.734512,273.112732 266.746185,273.168854 
	C268.816956,271.099915 270.887726,269.030975 273.263428,266.188171 
	C273.480164,264.555542 273.884247,262.923096 273.886017,261.290222 
	C273.922607,227.301392 273.943329,193.312408 273.845123,159.323822 
	C273.838745,157.106873 272.851074,154.892746 272.204987,151.978607 
	C269.919128,150.476593 267.633240,148.974564 264.527557,147.204193 
	C240.754440,147.114731 216.981308,147.025269 193.454803,146.344498 
	C195.686829,144.231262 197.918869,142.118042 200.776047,139.963074 
	C200.982849,139.928619 201.189667,139.894165 202.252075,139.599640 
	C223.004501,139.682266 243.756943,139.764893 265.327332,139.939911 
	C269.459869,139.440460 272.593781,137.809021 273.290283,132.321121 
	C273.466858,121.502373 273.643463,110.683617 274.388580,99.300606 
	C276.513367,99.093826 278.638153,98.887039 280.753571,99.684555 
	C280.753174,107.102890 280.617249,114.524681 280.806183,121.938187 
	C280.909790,126.001648 281.561646,130.051132 281.995361,134.833588 
	C284.192810,136.498016 286.390259,138.162445 289.447723,139.740036 
	C324.361115,139.752762 359.274536,139.782120 394.187805,139.719696 
	C395.643219,139.717087 397.097107,138.857239 399.375946,138.184006 
	C402.690277,138.062393 405.096436,136.937317 405.373810,132.311050 
	C405.598999,128.472900 405.824188,124.634743 406.767700,120.826057 
	C408.836426,121.981987 410.905151,123.137917 412.979034,125.120956 
	C413.642212,127.461456 414.305389,129.801971 414.992310,132.549820 
	C414.992310,132.549820 415.012054,132.957382 414.968842,133.746307 
	C414.812500,137.785507 417.070465,139.204330 421.558289,139.377396 
	C422.206635,139.503113 422.854889,139.738373 423.503326,139.738846 
	C458.379547,139.764236 493.255829,139.782928 528.131897,139.716232 
	C529.210327,139.714172 530.287109,138.805145 532.757263,137.956741 
	C533.663147,137.643845 534.568970,137.330933 535.633850,136.712753 
	C536.701660,134.071915 538.683350,131.436478 538.699036,128.789413 
	C538.906250,93.862206 538.886108,58.933117 538.715393,24.005516 
	C538.705017,21.879602 536.950623,19.762217 535.966736,16.895403 
	C535.082458,16.392519 534.198181,15.889634 533.654663,15.143296 
	C533.654663,15.143296 533.902405,15.471349 532.917053,15.193270 
	C532.584167,15.118006 532.251221,15.042742 531.615234,14.138757 
	C529.476074,13.967627 527.337036,13.649482 525.197754,13.647398 
	C492.613251,13.615659 460.028778,13.618586 427.444275,13.640326 
	C425.290558,13.641762 423.136963,13.860134 420.255768,13.828381 
	C416.183777,15.070730 414.435303,18.049057 414.006470,23.001713 
	C413.936188,37.338512 413.865875,51.675316 413.421600,66.265770 
	C413.198547,66.481995 413.051880,66.741417 412.258087,67.031250 
	C410.134369,66.021439 408.010651,65.011635 405.983276,63.065689 
	C405.986176,50.603909 406.029968,38.141861 405.949280,25.680618 
	C405.936737,23.743719 405.355469,21.810503 404.955444,19.217478 
	C404.027069,15.684235 401.101624,14.670518 397.139221,13.700130 
	C362.075317,13.676948 327.011444,13.651008 291.947540,13.644753 
	C290.961426,13.644578 289.975220,13.854604 288.248322,13.813645 
	C283.417572,14.955737 281.343323,18.295315 280.847534,23.908653 
	C280.863953,31.605940 280.880371,39.303226 280.154205,47.246845 
	C278.080597,47.471443 276.006989,47.696041 273.915771,46.998798 
	C273.915070,44.855331 273.983459,42.709202 273.900940,40.568890 
	C273.635864,33.693478 273.315002,26.820211 272.924652,19.186684 
	C272.209290,16.162279 270.320770,14.656321 266.871765,14.278969 
	C265.088104,14.057387 263.304626,13.644408 261.520752,13.642566 
	C227.882278,13.607812 194.243729,13.616731 160.605225,13.640316 
	C158.947067,13.641479 157.134018,13.474648 155.667328,14.066084 
	C153.462341,14.955228 150.150665,15.216327 151.032516,19.039150 
	C151.032516,19.039150 151.065964,18.973661 150.527313,18.497568 
	C150.056778,19.671692 149.586258,20.845816 148.727188,22.882860 
	C148.699692,37.496246 148.624802,52.109741 148.658112,66.722992 
	C148.691025,81.161057 148.833282,95.598885 148.453781,110.096161 
	C148.453781,110.096161 148.106369,110.423737 148.061050,110.449974 
	C148.061050,110.449974 148.041351,110.551735 147.711960,111.128929 
	C147.176636,111.770294 146.641296,112.411652 145.497223,112.526535 
	C144.998352,107.437752 144.095016,102.351097 144.068146,97.259819 
	C143.924774,70.103836 143.901962,42.945995 144.098206,15.790677 
	C144.130737,11.290939 143.033463,9.868405 138.325592,9.890626 
	C98.007904,10.080918 57.688599,10.076706 17.370789,9.899758 
	C12.481961,9.878303 10.937378,11.562121 10.948004,16.219437 
	C11.039616,56.371212 10.989503,96.523285 11.012151,136.675262 
	C11.015678,142.928757 12.116272,143.992798 18.210331,143.996948 
	C53.197311,144.020752 88.184303,144.035126 122.928940,144.629837 
	C122.405716,145.502747 121.882484,146.375656 120.357887,147.128342 
	C95.752815,147.119934 71.147720,147.087234 46.542698,147.117798 
	C39.072052,147.127075 31.601622,147.311020 23.414087,147.296036 
	C19.187645,148.177536 16.693855,150.722809 15.825796,155.927902 
	C15.789964,191.588242 15.748709,227.248566 15.739697,262.908905 
	C15.739365,264.227356 16.053890,265.545868 16.189034,267.556824 
	C18.462139,269.367249 20.735245,271.177673 23.929512,273.173401 
	C45.901127,273.216888 67.872742,273.260406 89.916153,274.153564 
	C89.899986,276.444031 89.883827,278.734497 88.953506,281.064209 
	C68.190186,281.069183 47.426823,281.052521 26.663567,281.091919 
	C20.197386,281.104187 17.428848,283.217010 15.805626,289.904388 
	C15.774401,303.030792 15.701039,316.157257 15.721220,329.283600 
	C15.756979,352.543274 15.849566,375.802917 15.779757,399.776306 
	C16.857004,401.525940 17.934254,403.275543 19.316523,405.503754 
	C19.843933,405.678223 20.371346,405.852661 21.453058,406.270264 
	C21.842260,406.351166 22.231462,406.432068 23.416037,406.869232 
	C56.330582,406.864899 89.245132,406.860565 122.716087,407.203156 
	C123.843674,409.050598 124.971252,410.898010 126.038963,413.408539 
	C126.024162,413.851837 126.009354,414.295166 125.075050,414.925812 
	C93.675735,414.937775 62.276318,414.916107 30.877237,415.007599 
	C27.257490,415.018127 23.639576,415.658539 19.339499,416.095612 
	C18.559523,417.407288 17.779547,418.718933 16.440105,420.549072 
	C16.113745,422.160858 15.505096,423.772186 15.502538,425.384491 
	C15.446925,460.432922 15.413512,495.481628 15.497791,530.529907 
	C15.513710,537.150085 18.062275,539.657837 25.966496,540.993347 
	C61.286324,540.957947 96.606148,540.922546 132.640182,540.973450 
	C132.938965,540.647217 133.237747,540.320984 134.133530,539.888855 
	C137.124756,539.160950 141.335709,539.476257 139.762726,533.889282 
	C140.139191,531.846436 140.836472,529.804749 140.844070,527.760498 
	C140.961670,496.103882 140.989822,464.446930 141.681641,433.036072 
	C144.051285,435.970062 146.420914,438.904022 148.661301,442.798889 
	C148.655777,468.225922 148.632660,493.652954 148.660736,519.079956 
	C148.665863,523.720703 148.879791,528.361145 148.877975,533.735291 
	C149.587814,535.017273 150.297638,536.299316 151.181137,538.136719 
	C152.071686,538.425903 152.962250,538.715149 154.305450,539.529846 
	C155.228882,539.979187 156.152328,540.428589 157.998489,540.981262 
	C193.641876,540.949524 229.285263,540.917847 265.646698,541.002747 
	C266.771118,540.566223 267.895569,540.129700 269.584259,539.445312 
	C270.114441,538.619141 270.644623,537.792908 271.804565,536.871216 
	C272.184998,536.198792 272.565399,535.526306 273.105530,534.048096 
	C273.346588,532.262024 273.783997,530.477356 273.796173,528.689697 
	C273.863892,518.735168 273.828461,508.779877 274.644470,498.478271 
	C276.660309,498.713196 278.676178,498.948090 280.725861,499.622009 
	C280.725861,499.622009 280.972321,499.988037 280.848083,500.919708 
	C280.898315,511.279968 280.948547,521.640259 280.846741,532.698608 
	C281.676178,534.342102 282.505615,535.985657 283.661591,538.300354 
	C284.955536,539.011780 286.249481,539.723206 287.543457,540.434631 
	C287.712585,540.082031 287.881744,539.729370 288.050903,539.376770 
	C286.760712,538.522034 285.470490,537.667297 284.050201,536.093262 
	C283.613922,534.700623 283.177643,533.307983 282.830658,530.992737 
	C282.816559,520.576233 282.802460,510.159760 283.435181,499.262085 
	C324.699860,502.366943 364.799896,496.734039 403.886353,484.112854 
	C403.894714,499.316620 403.930450,514.520508 403.874146,529.724060 
	C403.867676,531.474121 403.348053,533.222290 402.602448,535.209290 
	C402.397095,535.671021 402.191742,536.132812 401.480011,537.150879 
	C399.918274,537.899536 398.356537,538.648254 395.885681,539.348755 
	C360.158752,539.348755 324.431793,539.348755 288.704865,539.348755 
	C288.704865,539.851929 288.704865,540.355042 288.704865,540.858215 
	C324.773987,540.858215 360.843079,540.858215 397.662659,540.929993 
	C399.574432,539.598450 401.486176,538.266968 403.968170,536.847717 
	C404.309387,536.223999 404.650635,535.600220 405.238159,534.178528 
	C405.488861,532.890564 405.956512,531.602661 405.957245,530.314575 
	C405.966156,514.502197 405.906738,498.689758 406.284637,482.314056 
	C408.522156,481.541199 410.759674,480.768341 413.156464,480.404236 
	C413.307465,480.666931 413.520630,480.861542 413.963501,481.913605 
	C413.984009,498.601715 414.004547,515.289795 413.861633,532.724670 
	C414.572449,534.308533 415.283234,535.892334 416.111847,537.990784 
	C416.676300,538.313904 417.240723,538.637024 418.109344,539.605469 
	C419.439972,540.015381 420.770599,540.425293 423.016571,540.974243 
	C458.662079,540.958679 494.307556,540.943115 530.646729,541.053040 
	C531.498108,540.354370 532.349426,539.655762 533.825134,538.969055 
	C534.033325,538.969238 534.241455,538.969360 534.655823,538.631897 
	C538.519348,536.650879 538.845886,533.089966 538.844971,529.350037 
	C538.836609,495.090576 538.864075,460.831085 538.822632,426.571686 
	C538.813110,418.677216 535.146240,415.035736 527.188293,415.026978 
	C501.078552,414.998322 474.968750,415.052795 448.504974,414.403412 
	C448.626038,411.918915 448.747131,409.434387 449.831207,406.999420 
	C475.041779,407.001740 500.252380,407.024078 525.462769,406.961639 
	C527.159973,406.957458 528.855652,406.312927 531.416016,405.902710 
	C531.983093,405.794952 532.550171,405.687164 533.062805,405.800079 
	C533.062805,405.800079 533.009705,406.013428 533.147644,405.930359 
	C533.147644,405.930359 533.085693,406.193024 533.085693,406.193024 
	C533.085693,406.193024 533.047180,405.995819 532.568420,405.444977 
	C533.430420,404.854370 534.292419,404.263763 535.939514,403.803345 
	C536.642334,402.921844 537.345154,402.040344 538.282349,400.343536 
	C538.468567,398.197540 538.814880,396.051697 538.817078,393.905518 
	C538.851379,360.748474 538.786987,327.591217 538.903748,294.434540 
	C538.919800,289.859619 538.298523,285.924438 534.010559,282.487549 
	C531.280640,282.028687 528.552979,281.187134 525.820374,281.170532 
	C500.028198,281.013733 474.235138,280.997559 448.323608,280.106354 
	C448.406433,277.896515 448.489258,275.686676 448.601135,273.396423 
	C448.601135,273.396423 448.647888,273.329010 449.628448,273.295532 
	C452.625732,273.293030 455.623016,273.296661 458.620270,273.287048 
	C482.759430,273.209656 506.898621,273.129791 531.661072,273.190979 
	C532.451355,272.654999 533.241638,272.119049 534.613586,271.518982 
	C534.911438,271.272461 535.209351,271.025909 535.942444,270.375488 
z"/>
<path fill="#522CD4" opacity="1.000000" stroke="none" 
	d="
M280.762939,98.680260 
	C278.638153,98.887039 276.513367,99.093826 273.753296,99.594955 
	C272.658356,99.961861 272.198639,100.034416 271.407196,100.111671 
	C270.492401,100.330872 269.909393,100.545387 268.946686,100.687256 
	C243.833481,106.472061 222.169632,117.982498 203.641220,135.838760 
	C202.960800,136.531021 202.533493,137.117645 201.809525,137.916779 
	C201.207489,138.507599 200.902130,138.885895 200.554153,139.407135 
	C200.325867,139.649765 200.205658,139.801331 200.150894,140.004807 
	C197.918869,142.118042 195.686829,144.231262 193.155807,146.898438 
	C192.515457,147.971451 192.174103,148.490494 191.577332,149.205841 
	C190.129730,150.777527 188.851624,152.088165 187.758316,153.538132 
	C173.125732,172.944092 163.716354,194.780380 158.118454,218.292801 
	C154.227753,234.634628 151.603088,251.174866 152.309143,268.338104 
	C152.525436,268.971313 152.769821,269.344940 153.045258,270.057800 
	C153.088028,270.623840 153.099747,270.850647 153.062378,271.215729 
	C153.013290,271.354004 153.065750,271.642792 153.065750,271.642792 
	C152.734634,275.080841 152.403503,278.518890 152.109695,282.806274 
	C152.192444,284.473969 152.237885,285.292358 152.228882,286.539673 
	C152.789932,293.573120 153.232788,300.199066 154.050598,306.778442 
	C157.709747,336.217041 167.154068,363.591309 184.226059,387.993622 
	C188.741684,394.448151 194.548401,399.999359 199.867126,406.194763 
	C200.216217,406.651184 200.460495,406.878204 200.704773,407.105225 
	C203.346100,409.671448 205.987411,412.237671 209.087952,415.198547 
	C210.312546,416.113983 211.077911,416.634735 211.983490,417.462341 
	C228.796539,431.115875 247.811722,439.540924 268.476227,444.420410 
	C269.866425,444.748657 271.500488,444.044098 273.021149,443.819885 
	C275.336426,444.766907 277.651672,445.713959 280.701050,446.763580 
	C281.947815,446.882477 282.460388,446.898743 283.367401,447.050476 
	C298.530731,447.430817 313.370850,448.697784 328.051483,447.675110 
	C348.779419,446.231262 368.546051,440.230804 386.983459,430.385284 
	C388.114685,429.781189 389.513000,428.380341 389.564789,427.292053 
	C389.728027,423.863281 389.308472,420.406799 389.133728,416.647034 
	C389.148926,415.913818 389.144928,415.494537 389.140930,415.075287 
	C389.288971,412.570648 389.437012,410.066040 389.360138,406.971741 
	C389.126740,406.193085 389.118256,406.004059 389.257843,405.445251 
	C389.508728,404.090027 389.700897,403.104553 389.701355,402.119049 
	C389.716888,369.318146 389.717499,336.517273 389.699921,303.716370 
	C389.699310,302.596863 389.489380,301.477478 389.341003,299.999420 
	C387.316101,299.999420 385.511353,299.999390 383.706604,299.999390 
	C352.404205,299.999390 321.101807,300.016510 289.799500,299.964233 
	C287.510071,299.960419 285.221466,299.454346 282.662079,299.122131 
	C281.939819,298.750732 281.488007,298.438965 281.036194,298.127167 
	C273.253113,283.483826 273.621826,268.767334 281.086121,253.638046 
	C282.007294,253.035904 282.482269,252.786835 283.427612,252.466919 
	C295.352997,252.264084 306.807678,252.059906 318.263000,252.014328 
	C346.513794,251.901962 374.764893,251.862366 403.237122,251.848633 
	C403.458405,251.903763 403.911835,251.855179 404.256439,251.925659 
	C405.066467,251.949020 405.531860,251.901901 405.997284,251.854782 
	C408.048462,251.893204 410.099670,251.931625 412.821869,251.941681 
	C413.492889,251.913284 413.979950,251.856522 414.345520,251.857544 
	C414.954742,251.854858 415.198425,251.851151 415.880005,251.885178 
	C419.462097,251.947906 422.606323,251.991852 425.750580,251.994537 
	C439.107147,252.005997 446.070740,258.007507 448.261719,271.454254 
	C448.285400,271.515656 448.220551,271.630188 448.312805,272.091034 
	C448.460693,272.860168 448.516388,273.168488 448.572083,273.476837 
	C448.489258,275.686676 448.406433,277.896515 448.340637,280.782532 
	C448.518982,281.971161 448.680298,282.483612 448.618683,283.340973 
	C448.359650,323.268036 448.318329,362.850220 448.314117,402.432404 
	C448.313995,403.560577 448.708771,404.688812 448.901428,406.100006 
	C448.878357,406.571960 448.873291,406.760925 448.868195,406.949890 
	C448.747131,409.434387 448.626038,411.918915 448.693054,415.053894 
	C448.877014,416.123352 448.872864,416.542328 448.637451,417.304688 
	C448.365753,427.257782 448.287415,436.867462 448.294525,446.477112 
	C448.303009,457.893890 443.284637,466.111786 432.895813,470.959839 
	C427.065430,473.680603 421.218506,476.366028 415.152740,479.205170 
	C414.601532,479.461456 414.276611,479.579956 413.686890,479.688599 
	C413.280426,479.784302 413.138824,479.889893 412.997192,479.995483 
	C410.759674,480.768341 408.522156,481.541199 405.730774,482.602417 
	C404.734039,482.997894 404.291199,483.105042 403.848389,483.212158 
	C364.799896,496.734039 324.699860,502.366943 282.996613,499.592041 
	C282.558044,499.921967 282.293549,499.806885 282.095520,499.568787 
	C281.495636,499.281464 281.093842,499.232208 280.692017,499.182983 
	C278.676178,498.948090 276.660309,498.713196 273.921844,498.631195 
	C272.784607,498.732361 272.369995,498.680603 271.636719,498.451111 
	C265.259827,497.209656 259.180481,496.253448 253.146881,495.064880 
	C215.411575,487.631378 181.732773,472.054993 153.594772,445.368561 
	C152.822845,444.636444 151.658661,444.317963 150.478607,443.598602 
	C149.783401,442.873077 149.286987,442.355530 148.790573,441.837982 
	C146.420914,438.904022 144.051285,435.970062 141.197388,432.662964 
	C140.138855,431.751160 139.564575,431.212433 138.840576,430.397217 
	C135.410736,425.715820 132.130600,421.310913 128.788177,416.667114 
	C128.300354,415.925415 127.874786,415.422607 127.339569,414.608643 
	C126.852898,413.780151 126.475868,413.262787 126.098839,412.745453 
	C124.971252,410.898010 123.843674,409.050598 122.364349,406.830322 
	C121.853981,406.222168 121.670509,406.008118 121.381866,405.452087 
	C117.831306,398.121796 114.137169,391.256104 110.929314,384.170258 
	C96.395981,352.067413 90.991096,318.030334 89.884537,282.769287 
	C89.904182,281.955231 89.885925,281.490112 89.867661,281.024963 
	C89.883827,278.734497 89.899986,276.444031 89.907166,273.413269 
	C89.891495,272.250275 89.884819,271.827576 89.930496,270.912659 
	C90.793922,239.965500 95.069183,210.095901 106.059326,181.526871 
	C110.283081,170.547150 115.547859,159.967926 120.533524,149.006012 
	C120.938919,148.286713 121.149086,147.767654 121.359253,147.248581 
	C121.882484,146.375656 122.405716,145.502747 123.371887,144.200562 
	C124.631516,142.344498 125.448181,140.917694 126.379036,139.291077 
	C126.746666,138.701233 127.000114,138.311188 127.466202,137.680435 
	C131.453613,132.093842 135.228378,126.747955 139.242783,121.244232 
	C139.697906,120.777756 139.913406,120.469116 140.346069,120.025124 
	C140.714249,119.593056 140.865265,119.296333 141.007050,118.999435 
	C140.997818,118.999260 141.005814,119.016121 141.255157,118.943726 
	C141.639374,118.568146 141.774231,118.264969 142.053116,117.669342 
	C143.500076,115.935608 144.803024,114.494308 146.105972,113.053009 
	C146.641296,112.411652 147.176636,111.770294 147.966629,110.855820 
	C148.221298,110.582703 148.106369,110.423737 148.106369,110.423737 
	C148.106369,110.423737 148.453781,110.096161 148.930908,109.960175 
	C149.849319,109.324089 150.290604,108.823997 151.064041,108.182098 
	C176.414566,82.951820 205.973267,65.434380 239.954285,55.561314 
	C250.419922,52.520561 261.190704,50.530113 272.174988,48.101315 
	C272.996582,48.069469 273.464996,47.995052 273.933380,47.920635 
	C276.006989,47.696041 278.080597,47.471443 280.854248,47.137863 
	C281.990021,46.986649 282.425812,46.944416 283.325562,46.945698 
	C285.945343,46.901272 288.107086,46.887249 290.256042,46.713951 
	C311.869934,44.970936 333.433777,45.642937 354.635681,50.103867 
	C370.148926,53.367886 385.363403,58.052002 400.953613,62.353802 
	C402.095917,62.777584 402.995667,62.950699 404.103699,63.313492 
	C404.836945,63.669380 405.361938,63.835598 405.886932,64.001816 
	C408.010651,65.011635 410.134369,66.021439 412.707245,67.226105 
	C413.347229,67.646179 413.590118,67.764442 414.252747,67.854240 
	C414.868134,67.970390 415.115906,68.008064 415.618835,68.242714 
	C423.841370,73.539452 432.306641,78.031090 439.576569,83.982834 
	C443.503326,87.197540 447.227203,92.686989 447.809479,97.538246 
	C449.022736,107.646790 448.464996,118.037804 447.802979,128.258850 
	C447.604645,131.321152 444.649963,134.204910 442.662933,137.250793 
	C439.395630,136.956940 436.423370,136.582748 433.067017,136.127045 
	C427.556763,132.974564 422.430664,129.903595 417.070984,126.577362 
	C415.549591,125.646027 414.261719,124.969933 412.973877,124.293846 
	C410.905151,123.137917 408.836426,121.981987 406.204407,120.617554 
	C405.117432,120.230911 404.593781,120.052765 403.870361,119.604431 
	C402.813416,118.835144 401.983551,118.280106 401.095001,117.845070 
	C376.272003,105.692184 350.290924,97.390862 322.528351,96.462898 
	C309.341095,96.022110 296.090149,97.487656 282.576294,98.074524 
	C281.777313,98.266388 281.270142,98.473328 280.762939,98.680260 
z"/>
<path fill="#FFFFFF" opacity="1.000000" stroke="none" 
	d="
M415.379028,479.067383 
	C421.218506,476.366028 427.065430,473.680603 432.895813,470.959839 
	C443.284637,466.111786 448.303009,457.893890 448.294525,446.477112 
	C448.287415,436.867462 448.365753,427.257782 449.118774,417.329651 
	C475.301117,417.013489 500.770905,417.012970 526.240723,417.019684 
	C534.759399,417.021942 536.895447,419.127350 536.897766,427.549438 
	C536.904785,453.019257 537.157043,478.492828 536.785522,503.957214 
	C536.615112,515.635315 539.039795,527.563416 534.449646,538.969482 
	C534.241455,538.969360 534.033325,538.969238 533.081299,538.881165 
	C531.492126,538.993958 530.646729,539.194641 529.346436,539.370911 
	C493.321686,539.351013 457.751862,539.355530 421.813873,539.165039 
	C420.629669,538.803833 419.813690,538.637573 418.943848,538.226807 
	C418.362152,537.675415 417.834351,537.368530 417.236755,536.722412 
	C416.605255,534.931274 416.043549,533.479248 415.461639,531.557861 
	C415.420654,513.748108 415.399841,496.407745 415.379028,479.067383 
z"/>
<path fill="#FEFEFE" opacity="1.000000" stroke="none" 
	d="
M442.958008,137.170441 
	C444.649963,134.204910 447.604645,131.321152 447.802979,128.258850 
	C448.464996,118.037804 449.022736,107.646790 447.809479,97.538246 
	C447.227203,92.686989 443.503326,87.197540 439.576569,83.982834 
	C432.306641,78.031090 423.841370,73.539452 415.648132,67.769073 
	C415.466400,52.044228 415.510498,36.989994 415.765015,21.705967 
	C417.650024,19.454010 419.324615,17.431849 421.465149,15.357677 
	C458.286804,15.309739 494.642548,15.313810 531.095337,15.648942 
	C531.992065,16.183912 532.791626,16.387823 533.555176,16.489895 
	C533.519104,16.388060 533.682983,16.000780 533.932007,16.090248 
	C534.404846,16.620281 534.628601,17.060846 534.926636,17.918842 
	C535.634644,20.676359 536.812073,23.014547 536.820251,25.356823 
	C536.939270,59.455120 536.938965,93.554070 536.839783,127.652496 
	C536.830750,130.775650 535.950562,133.896255 535.474854,137.018036 
	C534.568970,137.330933 533.663147,137.643845 531.709229,137.990295 
	C525.360779,137.832779 520.061218,137.506393 514.759888,137.473923 
	C490.826202,137.327301 466.891998,137.263855 442.958008,137.170441 
z"/>
<path fill="#FEFEFF" opacity="1.000000" stroke="none" 
	d="
M448.919434,405.817017 
	C448.708771,404.688812 448.313995,403.560577 448.314117,402.432404 
	C448.318329,362.850220 448.359650,323.268036 449.101929,283.371887 
	C475.069855,283.062836 500.331543,283.062866 525.593262,283.079498 
	C528.439392,283.081360 531.285583,283.176849 534.469604,283.514099 
	C535.505432,286.932434 536.796570,290.063049 536.809998,293.199158 
	C536.955750,327.245605 536.918884,361.292969 536.854309,395.339935 
	C536.850647,397.250977 536.168762,399.160736 535.571350,401.294128 
	C535.234009,402.142700 535.127808,402.768280 534.933472,403.641602 
	C534.269287,404.452698 533.693237,405.016052 533.117249,405.579407 
	C532.550171,405.687164 531.983093,405.794952 530.482178,405.846313 
	C502.672028,405.798920 475.795746,405.807983 448.919434,405.817017 
z"/>
<path fill="#FCFCFC" opacity="1.000000" stroke="none" 
	d="
M271.821747,48.058746 
	C261.190704,50.530113 250.419922,52.520561 239.954285,55.561314 
	C205.973267,65.434380 176.414566,82.951820 151.026047,107.681038 
	C150.581177,78.906708 150.506439,50.491623 150.603149,21.714739 
	C150.871735,20.559845 150.968857,19.766752 151.065964,18.973661 
	C151.065964,18.973661 151.032516,19.039150 151.302826,18.864151 
	C153.988434,17.526445 156.397324,15.366688 158.819977,15.351120 
	C193.232040,15.129992 227.645996,15.205654 262.059479,15.179712 
	C263.770081,15.178422 265.480530,14.904078 267.191040,14.756880 
	C270.320770,14.656321 272.209290,16.162279 272.561676,19.544434 
	C271.836670,20.163706 271.153900,20.431593 271.158966,20.685841 
	C271.340057,29.810932 271.585388,38.934750 271.821747,48.058746 
z"/>
<path fill="#FBFBFB" opacity="1.000000" stroke="none" 
	d="
M145.801605,112.789772 
	C144.803024,114.494308 143.500076,115.935608 141.833420,117.663574 
	C141.469696,117.950256 141.029251,117.946770 140.979004,117.483780 
	C140.922882,105.026703 140.941879,93.032547 140.905502,81.038559 
	C140.845901,61.388611 140.750305,41.738766 140.646973,21.735806 
	C139.550766,17.900169 138.282654,14.594040 133.513504,13.956747 
	C132.557922,13.810338 132.063828,13.693312 131.569656,13.692903 
	C96.367058,13.663795 61.164421,13.625379 25.961945,13.681782 
	C24.310923,13.684427 22.661263,14.538617 20.714184,15.125619 
	C19.934057,15.952629 19.450718,16.650248 18.686703,17.532713 
	C14.545679,19.427927 15.464334,22.973705 15.458241,25.964354 
	C15.389688,59.616459 15.407986,93.268753 15.433173,126.920975 
	C15.434537,128.742493 15.317014,130.709000 15.933647,132.353485 
	C17.045738,135.319275 18.041393,138.843140 22.520565,138.012970 
	C22.493023,138.015335 22.461788,137.969711 22.476795,138.354645 
	C22.965647,138.880997 23.439489,139.022430 24.301270,139.317627 
	C58.547756,139.477890 92.406303,139.484390 126.264847,139.490875 
	C125.448181,140.917694 124.631516,142.344498 123.493065,143.912003 
	C88.184303,144.035126 53.197311,144.020752 18.210331,143.996948 
	C12.116272,143.992798 11.015678,142.928757 11.012151,136.675262 
	C10.989503,96.523285 11.039616,56.371212 10.948004,16.219437 
	C10.937378,11.562121 12.481961,9.878303 17.370789,9.899758 
	C57.688599,10.076706 98.007904,10.080918 138.325592,9.890626 
	C143.033463,9.868405 144.130737,11.290939 144.098206,15.790677 
	C143.901962,42.945995 143.924774,70.103836 144.068146,97.259819 
	C144.095016,102.351097 144.998352,107.437752 145.801605,112.789772 
z"/>
<path fill="#F9F9FA" opacity="1.000000" stroke="none" 
	d="
M273.020020,443.363464 
	C271.500488,444.044098 269.866425,444.748657 268.476227,444.420410 
	C247.811722,439.540924 228.796539,431.115875 212.468109,417.413757 
	C229.969315,417.055084 247.126205,417.075043 264.282715,417.002777 
	C265.602966,416.997223 266.920441,416.341705 268.239197,415.988281 
	C272.600342,416.040955 273.427643,419.545135 273.517944,422.514923 
	C273.724304,429.300964 273.229126,436.108368 273.020020,443.363464 
z"/>
<path fill="#424242" opacity="1.000000" stroke="none" 
	d="
M534.552734,538.800659 
	C539.039795,527.563416 536.615112,515.635315 536.785522,503.957214 
	C537.157043,478.492828 536.904785,453.019257 536.897766,427.549438 
	C536.895447,419.127350 534.759399,417.021942 526.240723,417.019684 
	C500.770905,417.012970 475.301117,417.013489 449.350006,416.986237 
	C448.872864,416.542328 448.877014,416.123352 448.870056,415.389832 
	C474.968750,415.052795 501.078552,414.998322 527.188293,415.026978 
	C535.146240,415.035736 538.813110,418.677216 538.822632,426.571686 
	C538.864075,460.831085 538.836609,495.090576 538.844971,529.350037 
	C538.845886,533.089966 538.519348,536.650879 534.552734,538.800659 
z"/>
<path fill="#646464" opacity="1.000000" stroke="none" 
	d="
M25.035282,540.935181 
	C18.062275,539.657837 15.513710,537.150085 15.497791,530.529907 
	C15.413512,495.481628 15.446925,460.432922 15.502538,425.384491 
	C15.505096,423.772186 16.113745,422.160858 16.941044,420.453369 
	C17.740517,420.570740 18.039049,420.783813 18.271862,421.463989 
	C18.100742,422.588196 17.903883,423.245178 17.903044,423.902435 
	C17.857471,459.527924 17.780746,495.153503 17.856522,530.778809 
	C17.866238,535.345886 20.107811,538.705505 25.090235,539.697388 
	C25.067322,540.284485 25.051302,540.609863 25.035282,540.935181 
z"/>
<path fill="#4E4E4E" opacity="1.000000" stroke="none" 
	d="
M281.037292,156.018646 
	C282.777130,149.329437 285.531250,147.139206 292.733612,147.122391 
	C313.723907,147.073380 334.714325,147.104019 355.704712,147.103790 
	C368.365570,147.103653 381.027283,147.034958 393.686340,147.185944 
	C395.399719,147.206345 397.099945,148.330383 399.199524,149.243347 
	C399.592773,149.543304 399.906738,149.700974 399.465027,149.548462 
	C362.908661,149.354095 326.793945,149.337540 290.679413,149.240067 
	C285.889374,149.227142 284.003357,152.174591 282.483856,156.087769 
	C281.808167,156.072525 281.422729,156.045578 281.037292,156.018646 
z"/>
<path fill="#646464" opacity="1.000000" stroke="none" 
	d="
M398.551727,138.396774 
	C397.097107,138.857239 395.643219,139.717087 394.187805,139.719696 
	C359.274536,139.782120 324.361115,139.752762 288.832336,139.495850 
	C288.091187,138.823914 287.965424,138.396179 288.209412,137.771240 
	C324.153687,137.534668 359.728241,137.487701 395.302765,137.491516 
	C396.399597,137.491638 397.496368,138.019119 398.587524,138.326782 
	C398.581879,138.352829 398.551727,138.396774 398.551727,138.396774 
z"/>
<path fill="#646464" opacity="1.000000" stroke="none" 
	d="
M442.662933,137.250778 
	C466.891998,137.263855 490.826202,137.327301 514.759888,137.473923 
	C520.061218,137.506393 525.360779,137.832779 531.012878,138.171387 
	C530.287109,138.805145 529.210327,139.714172 528.131897,139.716232 
	C493.255829,139.782928 458.379547,139.764236 423.503326,139.738846 
	C422.854889,139.738373 422.206635,139.503113 421.180634,138.946396 
	C420.819580,138.328445 420.836151,138.141495 421.218384,137.765350 
	C425.539795,137.120285 429.495453,136.664413 433.451141,136.208557 
	C436.423370,136.582748 439.395630,136.956940 442.662933,137.250778 
z"/>
<path fill="#424242" opacity="1.000000" stroke="none" 
	d="
M388.659393,415.046509 
	C389.144928,415.494537 389.148926,415.913818 388.654114,416.671204 
	C356.088135,417.011871 324.020905,417.000305 291.953705,417.028107 
	C285.140839,417.034027 283.069672,419.141388 283.016846,425.980499 
	C282.962952,432.958405 282.984467,439.936829 282.972961,446.915039 
	C282.460388,446.898743 281.947815,446.882477 281.061707,446.773254 
	C280.709259,440.189423 280.725677,433.698425 280.752472,427.207520 
	C280.787933,418.621735 284.264099,415.029938 292.806519,415.021515 
	C324.596924,414.990234 356.387390,415.014374 388.659393,415.046509 
z"/>
<path fill="#7F7F7F" opacity="1.000000" stroke="none" 
	d="
M152.283325,286.110748 
	C152.237885,285.292358 152.192444,284.473969 152.181488,283.248291 
	C154.761841,282.264618 157.306122,281.194733 159.853851,281.186462 
	C194.001892,281.075317 228.150833,281.195587 262.298370,281.023560 
	C267.460205,280.997559 270.917450,282.612274 272.568817,287.844727 
	C271.992767,288.241241 271.644196,288.205200 271.301575,287.826233 
	C270.551788,286.657104 269.795990,285.830933 269.029205,284.739136 
	C268.691345,284.403351 268.364471,284.333191 267.633301,284.127533 
	C265.116730,283.686035 263.004944,283.117035 260.892151,283.113434 
	C227.733154,283.057312 194.573532,282.994843 161.415787,283.206146 
	C158.365601,283.225586 155.327194,285.098511 152.283325,286.110748 
z"/>
<path fill="#424242" opacity="1.000000" stroke="none" 
	d="
M535.554321,136.865402 
	C535.950562,133.896255 536.830750,130.775650 536.839783,127.652496 
	C536.938965,93.554070 536.939270,59.455120 536.820251,25.356823 
	C536.812073,23.014547 535.634644,20.676359 535.209351,18.008677 
	C535.614441,17.667671 535.811096,17.654263 536.007751,17.640858 
	C536.950623,19.762217 538.705017,21.879602 538.715393,24.005516 
	C538.886108,58.933117 538.906250,93.862206 538.699036,128.789413 
	C538.683350,131.436478 536.701660,134.071915 535.554321,136.865402 
z"/>
<path fill="#424242" opacity="1.000000" stroke="none" 
	d="
M535.802551,401.071075 
	C536.168762,399.160736 536.850647,397.250977 536.854309,395.339935 
	C536.918884,361.292969 536.955750,327.245605 536.809998,293.199158 
	C536.796570,290.063049 535.505432,286.932434 534.445251,283.542236 
	C534.082947,283.285187 534.087952,283.360291 534.087952,283.360291 
	C538.298523,285.924438 538.919800,289.859619 538.903748,294.434540 
	C538.786987,327.591217 538.851379,360.748474 538.817078,393.905518 
	C538.814880,396.051697 538.468567,398.197540 537.788452,400.782410 
	C536.797241,401.171234 536.299927,401.121155 535.802551,401.071075 
z"/>
<path fill="#424242" opacity="1.000000" stroke="none" 
	d="
M537.003784,151.806137 
	C537.615967,154.305344 538.752441,156.802734 538.761108,159.304031 
	C538.878906,193.342255 538.880371,227.381180 538.758484,261.419373 
	C538.749573,263.918304 537.570984,266.413025 536.383301,268.891968 
	C535.679565,268.750732 535.528809,268.627289 535.526733,268.132141 
	C536.083618,265.336456 536.841553,262.913300 536.847229,260.488373 
	C536.925232,226.996124 536.942627,193.503464 536.818542,160.011490 
	C536.808655,157.340820 535.645447,154.674423 535.347412,151.955994 
	C536.119080,151.872650 536.561401,151.839386 537.003784,151.806137 
z"/>
<path fill="#212121" opacity="1.000000" stroke="none" 
	d="
M272.319824,152.677307 
	C272.851074,154.892746 273.838745,157.106873 273.845123,159.323822 
	C273.943329,193.312408 273.922607,227.301392 273.886017,261.290222 
	C273.884247,262.923096 273.480164,264.555542 272.682312,266.552399 
	C271.815033,266.916901 271.528839,266.917145 271.376160,266.470398 
	C271.585114,265.198242 271.726349,264.373138 271.726654,263.548004 
	C271.738861,228.329971 271.748169,193.111938 271.709320,157.893951 
	C271.707520,156.262283 271.260620,154.631119 271.360901,152.980133 
	C271.907104,152.866150 272.113464,152.771729 272.319824,152.677307 
z"/>
<path fill="#010101" opacity="1.000000" stroke="none" 
	d="
M271.295593,288.169189 
	C271.644196,288.205200 271.992767,288.241241 272.596680,288.202728 
	C273.177704,289.885468 273.784698,291.642303 273.787598,293.400085 
	C273.843781,327.333496 273.838684,361.267059 273.799988,395.200531 
	C273.798126,396.826324 273.370789,398.451630 272.728912,400.492554 
	C271.889832,400.933899 271.463470,400.959839 271.049500,400.559082 
	C271.315857,396.870148 271.784760,393.608246 271.790344,390.345581 
	C271.845520,358.246887 271.832886,326.148071 271.801056,294.049316 
	C271.799103,292.089111 271.471619,290.129211 271.295593,288.169189 
z"/>
<path fill="#353535" opacity="1.000000" stroke="none" 
	d="
M16.221684,266.864380 
	C16.053890,265.545868 15.739365,264.227356 15.739697,262.908905 
	C15.748709,227.248566 15.789964,191.588242 16.233295,155.438934 
	C17.062231,154.966446 17.483671,154.982925 17.814812,155.461304 
	C17.672352,191.488144 17.610163,227.053055 17.603796,262.617981 
	C17.603535,264.078094 18.127636,265.538300 18.042255,266.994537 
	C17.191940,266.948547 16.706812,266.906464 16.221684,266.864380 
z"/>
<path fill="#353535" opacity="1.000000" stroke="none" 
	d="
M266.018158,273.025055 
	C255.734512,273.112732 245.450806,273.280853 235.167236,273.272278 
	C208.782578,273.250275 182.397995,273.149872 155.539001,272.692993 
	C155.094315,272.086823 155.124008,271.868439 155.151764,271.604889 
	C155.149826,271.559753 155.061691,271.539917 155.519760,271.451172 
	C192.613251,271.365326 229.248672,271.368195 265.891602,271.651428 
	C265.938782,272.296204 265.978455,272.660614 266.018158,273.025055 
z"/>
<path fill="#353535" opacity="1.000000" stroke="none" 
	d="
M15.918375,399.062561 
	C15.849566,375.802917 15.756979,352.543274 15.721220,329.283600 
	C15.701039,316.157257 15.774401,303.030792 16.202145,289.394501 
	C17.022654,288.923981 17.446644,288.963348 17.788807,289.465607 
	C17.721144,326.248260 17.735308,362.567993 17.441475,398.933197 
	C16.728441,399.006622 16.323408,399.034607 15.918375,399.062561 
z"/>
<path fill="#131313" opacity="1.000000" stroke="none" 
	d="
M422.182068,539.360107 
	C457.751862,539.355530 493.321686,539.351013 529.376343,539.634644 
	C529.891785,540.257751 529.922424,540.592651 529.953064,540.927490 
	C494.307556,540.943115 458.662079,540.958679 422.591492,540.655518 
	C422.171661,540.011169 422.176880,539.685669 422.182068,539.360107 
z"/>
<path fill="#131313" opacity="1.000000" stroke="none" 
	d="
M396.912201,540.858215 
	C360.843079,540.858215 324.773987,540.858215 288.704865,540.858215 
	C288.704865,540.355042 288.704865,539.851929 288.704865,539.348755 
	C324.431793,539.348755 360.158752,539.348755 396.302979,539.619263 
	C396.863953,540.196838 396.927917,540.519653 396.912201,540.858215 
z"/>
<path fill="#131313" opacity="1.000000" stroke="none" 
	d="
M264.928650,540.886169 
	C229.285263,540.917847 193.641876,540.949524 157.531250,540.673584 
	C157.086716,540.033875 157.109390,539.701843 157.592041,539.357910 
	C193.657028,539.358337 229.262039,539.370544 264.829285,539.636597 
	C264.837250,540.222351 264.882935,540.554260 264.928650,540.886169 
z"/>
<path fill="#4E4E4E" opacity="1.000000" stroke="none" 
	d="
M421.819000,147.692688 
	C423.275574,147.496368 424.732086,147.129639 426.188782,147.128723 
	C460.463837,147.107300 494.738953,147.125366 529.487427,147.516083 
	C529.984497,148.293747 530.008118,148.691498 529.564087,149.149628 
	C493.400604,149.170319 457.704773,149.130615 421.973145,148.739777 
	C421.897949,148.156662 421.858490,147.924683 421.819000,147.692688 
z"/>
<path fill="#4E4E4E" opacity="1.000000" stroke="none" 
	d="
M127.449219,414.919800 
	C127.874786,415.422607 128.300354,415.925415 128.336563,416.723022 
	C99.623360,417.027466 71.299477,417.016876 42.975685,417.061066 
	C35.983356,417.071960 28.991312,417.261047 21.692406,417.226593 
	C20.930721,416.725616 20.475767,416.366272 20.020811,416.006897 
	C23.639576,415.658539 27.257490,415.018127 30.877237,415.007599 
	C62.276318,414.916107 93.675735,414.937775 125.893776,414.915100 
	C126.958076,414.909546 127.203651,414.914673 127.449219,414.919800 
z"/>
<path fill="#131313" opacity="1.000000" stroke="none" 
	d="
M25.500889,540.964233 
	C25.051302,540.609863 25.067322,540.284485 25.551109,539.656311 
	C61.304039,539.360962 96.589195,539.368469 131.835419,539.630737 
	C131.839661,540.219360 131.882812,540.553284 131.925980,540.887146 
	C96.606148,540.922546 61.286324,540.957947 25.500889,540.964233 
z"/>
<path fill="#4E4E4E" opacity="1.000000" stroke="none" 
	d="
M138.990265,430.673737 
	C139.564575,431.212433 140.138855,431.751160 140.875916,432.539948 
	C140.989822,464.446930 140.961670,496.103882 140.844070,527.760498 
	C140.836472,529.804749 140.139191,531.846436 139.181549,533.938721 
	C138.600388,533.988220 138.150162,533.939270 138.221375,533.535034 
	C138.452530,528.517883 138.735062,523.905518 138.752502,519.292114 
	C138.864182,489.752747 138.917664,460.213226 138.990265,430.673737 
z"/>
<path fill="#010101" opacity="1.000000" stroke="none" 
	d="
M280.962524,298.578766 
	C281.488007,298.438965 281.939819,298.750732 282.631836,299.572693 
	C282.828491,332.698029 282.784973,365.313171 282.446960,397.935852 
	C281.764160,397.964050 281.375793,397.984711 280.987427,398.005341 
	C280.954559,365.013672 280.921722,332.022034 280.962524,298.578766 
z"/>
<path fill="#131313" opacity="1.000000" stroke="none" 
	d="
M405.994873,251.398499 
	C405.531860,251.901901 405.066467,251.949020 404.251221,251.710846 
	C403.901428,251.425537 403.746216,251.023529 403.821899,250.558868 
	C403.902100,219.642380 403.925049,189.190506 403.867462,158.738785 
	C403.863831,156.814957 403.232239,154.892288 403.238159,152.930145 
	C404.040527,152.967865 404.497528,153.044525 404.954529,153.121185 
	C405.300385,155.564224 405.941528,158.006607 405.947113,160.450424 
	C406.016022,190.614227 405.992279,220.778244 405.994873,251.398499 
z"/>
<path fill="#010101" opacity="1.000000" stroke="none" 
	d="
M280.951721,156.479279 
	C281.422729,156.045578 281.808167,156.072525 282.514343,156.550659 
	C282.875824,188.847153 282.916534,220.692459 282.957214,252.537750 
	C282.482269,252.786835 282.007294,253.035904 281.273071,253.362946 
	C280.964600,221.273895 280.915405,189.106903 280.951721,156.479279 
z"/>
<path fill="#4E4E4E" opacity="1.000000" stroke="none" 
	d="
M120.858566,147.188461 
	C121.149086,147.767654 120.938919,148.286713 120.025513,149.014221 
	C87.550606,149.193054 55.778938,149.163452 24.004423,148.845856 
	C24.044744,148.176880 24.087919,147.795929 24.131094,147.414963 
	C31.601622,147.311020 39.072052,147.127075 46.542698,147.117798 
	C71.147720,147.087234 95.752815,147.119934 120.858566,147.188461 
z"/>
<path fill="#010101" opacity="1.000000" stroke="none" 
	d="
M148.725952,442.318420 
	C149.286987,442.355530 149.783401,442.873077 150.464127,444.086212 
	C150.656723,474.149445 150.664993,503.517059 150.393250,532.822876 
	C149.741257,532.841248 149.369293,532.921509 148.997330,533.001770 
	C148.879791,528.361145 148.665863,523.720703 148.660736,519.079956 
	C148.632660,493.652954 148.655777,468.225922 148.725952,442.318420 
z"/>
<path fill="#010101" opacity="1.000000" stroke="none" 
	d="
M150.431702,22.076542 
	C150.506439,50.491623 150.581177,78.906708 150.693909,107.822845 
	C150.290604,108.823997 149.849319,109.324089 149.167801,109.930496 
	C148.833282,95.598885 148.691025,81.161057 148.658112,66.722992 
	C148.624802,52.109741 148.699692,37.496246 149.141113,22.487379 
	C149.555023,22.091898 149.994781,22.165133 149.994781,22.165133 
	C149.994781,22.165133 150.431702,22.076542 150.431702,22.076542 
z"/>
<path fill="#7F7F7F" opacity="1.000000" stroke="none" 
	d="
M534.049255,282.923920 
	C534.087952,283.360291 534.082947,283.285187 534.107300,283.257050 
	C531.285583,283.176849 528.439392,283.081360 525.593262,283.079498 
	C500.331543,283.062866 475.069855,283.062836 449.324890,283.026978 
	C448.680298,282.483612 448.518982,281.971161 448.399994,281.199738 
	C474.235138,280.997559 500.028198,281.013733 525.820374,281.170532 
	C528.552979,281.187134 531.280640,282.028687 534.049255,282.923920 
z"/>
<path fill="#353535" opacity="1.000000" stroke="none" 
	d="
M448.220551,271.630188 
	C448.220551,271.630188 448.285400,271.515656 448.706055,271.458679 
	C476.380463,271.402588 503.634186,271.403473 530.907043,271.684601 
	C530.963318,272.326782 531.000549,272.688751 531.037781,273.050690 
	C506.898621,273.129791 482.759430,273.209656 458.620270,273.287048 
	C455.623016,273.296661 452.625732,273.293030 449.174103,273.010803 
	C448.553345,272.360809 448.386963,271.995483 448.220551,271.630188 
z"/>
<path fill="#868686" opacity="1.000000" stroke="none" 
	d="
M17.870634,289.002716 
	C17.446644,288.963348 17.022654,288.923981 16.281967,288.929810 
	C17.428848,283.217010 20.197386,281.104187 26.663567,281.091919 
	C47.426823,281.052521 68.190186,281.069183 89.410583,281.044586 
	C89.885925,281.490112 89.904182,281.955231 89.427383,282.761261 
	C69.057114,283.100250 49.179996,283.247314 29.307938,282.995605 
	C24.091337,282.929535 20.321497,284.398438 17.870634,289.002716 
z"/>
<path fill="#212121" opacity="1.000000" stroke="none" 
	d="
M267.031403,14.517923 
	C265.480530,14.904078 263.770081,15.178422 262.059479,15.179712 
	C227.645996,15.205654 193.232040,15.129992 158.819977,15.351120 
	C156.397324,15.366688 153.988434,17.526445 151.274078,18.887062 
	C150.150665,15.216327 153.462341,14.955228 155.667328,14.066084 
	C157.134018,13.474648 158.947067,13.641479 160.605225,13.640316 
	C194.243729,13.616731 227.882278,13.607812 261.520752,13.642566 
	C263.304626,13.644408 265.088104,14.057387 267.031403,14.517923 
z"/>
<path fill="#4E4E4E" opacity="1.000000" stroke="none" 
	d="
M191.832748,149.009552 
	C192.174103,148.490494 192.515457,147.971451 193.032501,147.194092 
	C216.981308,147.025269 240.754440,147.114731 264.831024,147.737305 
	C265.086365,148.541260 265.038208,148.812073 264.525330,149.143723 
	C239.984619,149.139542 215.908676,149.074554 191.832748,149.009552 
z"/>
<path fill="#353535" opacity="1.000000" stroke="none" 
	d="
M89.878143,271.404907 
	C89.884819,271.827576 89.891495,272.250275 89.871262,272.988434 
	C67.872742,273.260406 45.901127,273.216888 23.450333,272.790833 
	C23.015568,272.025330 23.059982,271.642395 23.564085,271.310272 
	C45.975231,271.375702 67.926689,271.390289 89.878143,271.404907 
z"/>
<path fill="#353535" opacity="1.000000" stroke="none" 
	d="
M200.596771,139.264175 
	C200.902130,138.885895 201.207489,138.507599 202.138031,137.922073 
	C203.180603,137.620651 203.597977,137.526443 204.467514,137.554520 
	C224.994568,137.771133 245.069458,137.865479 265.163147,138.304108 
	C264.957764,139.048111 264.733582,139.447830 264.509369,139.847534 
	C243.756943,139.764893 223.004501,139.682266 201.634750,139.566071 
	C201.017426,139.532501 200.596771,139.264175 200.596771,139.264175 
z"/>
<path fill="#4E4E4E" opacity="1.000000" stroke="none" 
	d="
M267.845825,415.815552 
	C266.920441,416.341705 265.602966,416.997223 264.282715,417.002777 
	C247.126205,417.075043 229.969315,417.055084 212.327911,417.106934 
	C211.077911,416.634735 210.312546,416.113983 209.395844,415.365295 
	C227.343033,415.084045 245.441559,415.016815 263.540131,415.006561 
	C264.844086,415.005829 266.148346,415.420990 267.845825,415.815552 
z"/>
<path fill="#212121" opacity="1.000000" stroke="none" 
	d="
M530.998291,15.317882 
	C494.642548,15.313810 458.286804,15.309739 421.423981,15.000069 
	C420.939026,14.455512 420.961182,14.216558 420.983307,13.977602 
	C423.136963,13.860134 425.290558,13.641762 427.444275,13.640326 
	C460.028778,13.618586 492.613251,13.615659 525.197754,13.647398 
	C527.337036,13.649482 529.476074,13.967627 531.515503,14.584881 
	C531.276611,15.126631 531.137451,15.222256 530.998291,15.317882 
z"/>
<path fill="#424242" opacity="1.000000" stroke="none" 
	d="
M389.109772,405.815033 
	C389.118256,406.004059 389.126740,406.193085 389.133698,406.666016 
	C356.444397,406.968384 323.756500,407.030487 291.069214,406.911896 
	C288.769928,406.903564 286.475525,405.560913 284.225159,404.280151 
	C284.426849,403.563751 284.582275,403.405975 285.025970,403.475159 
	C287.979706,404.385437 290.642365,405.650208 293.311157,405.663391 
	C325.243500,405.821594 357.176758,405.794006 389.109772,405.815033 
z"/>
<path fill="#212121" opacity="1.000000" stroke="none" 
	d="
M288.989075,13.966614 
	C289.975220,13.854604 290.961426,13.644578 291.947540,13.644753 
	C327.011444,13.651008 362.075317,13.676948 397.619385,14.164064 
	C398.140503,14.910515 398.181396,15.193030 397.745728,15.367922 
	C361.184387,15.214228 325.099579,15.168159 288.995544,14.833506 
	C288.980560,14.352152 288.984833,14.159382 288.989075,13.966614 
z"/>
<path fill="#131313" opacity="1.000000" stroke="none" 
	d="
M403.867371,483.662506 
	C404.291199,483.105042 404.734039,482.997894 405.520935,482.884064 
	C405.906738,498.689758 405.966156,514.502197 405.957245,530.314575 
	C405.956512,531.602661 405.488861,532.890564 404.794617,534.607422 
	C403.922821,535.014648 403.494598,534.993042 403.066345,534.971375 
	C403.348053,533.222290 403.867676,531.474121 403.874146,529.724060 
	C403.930450,514.520508 403.894714,499.316620 403.867371,483.662506 
z"/>
<path fill="#424242" opacity="1.000000" stroke="none" 
	d="
M121.462196,405.815308 
	C121.670509,406.008118 121.853981,406.222168 122.086143,406.656860 
	C89.245132,406.860565 56.330582,406.864899 23.158794,406.504639 
	C22.901554,406.140045 23.190899,405.776276 23.644402,405.741638 
	C56.552670,405.743103 89.007431,405.779205 121.462196,405.815308 
z"/>
<path fill="#010101" opacity="1.000000" stroke="none" 
	d="
M415.442139,251.847427 
	C415.198425,251.851151 414.954742,251.854858 414.339294,251.637939 
	C413.967529,251.417328 413.795929,251.011505 413.795898,251.011505 
	C413.863800,219.670044 413.931702,188.328568 414.406189,156.510803 
	C415.060181,156.000198 415.307556,155.965897 415.505127,156.402374 
	C415.450928,188.531250 415.446533,220.189346 415.442139,251.847427 
z"/>
<path fill="#FBFBFB" opacity="1.000000" stroke="none" 
	d="
M433.067017,136.127045 
	C429.495453,136.664413 425.539795,137.120285 420.972656,137.558090 
	C418.578156,136.012466 416.795105,134.484924 415.012054,132.957367 
	C415.012054,132.957382 414.992310,132.549820 415.274078,132.094482 
	C416.138763,130.036972 416.721680,128.434799 417.304565,126.832626 
	C422.430664,129.903595 427.556763,132.974564 433.067017,136.127045 
z"/>
<path fill="#131313" opacity="1.000000" stroke="none" 
	d="
M405.935120,63.533752 
	C405.361938,63.835598 404.836945,63.669380 404.105469,63.026176 
	C403.848755,62.365578 403.798523,62.181969 403.824646,61.535408 
	C403.794983,47.713104 403.688965,34.353752 403.713867,20.678242 
	C404.242218,20.199915 404.639709,20.037746 405.037231,19.875580 
	C405.355469,21.810503 405.936737,23.743719 405.949280,25.680618 
	C406.029968,38.141861 405.986176,50.603909 405.935120,63.533752 
z"/>
<path fill="#424242" opacity="1.000000" stroke="none" 
	d="
M448.901428,406.100006 
	C475.795746,405.807983 502.672028,405.798920 530.050171,405.878052 
	C528.855652,406.312927 527.159973,406.957458 525.462769,406.961639 
	C500.252380,407.024078 475.041779,407.001740 449.349701,406.974670 
	C448.873291,406.760925 448.878357,406.571960 448.901428,406.100006 
z"/>
<path fill="#010101" opacity="1.000000" stroke="none" 
	d="
M271.955383,498.628876 
	C272.369995,498.680603 272.784607,498.732361 273.513794,498.804474 
	C273.828461,508.779877 273.863892,518.735168 273.796173,528.689697 
	C273.783997,530.477356 273.346588,532.262024 272.708557,534.476685 
	C271.888184,534.931396 271.464783,534.957581 271.052643,534.557373 
	C271.317657,530.888489 271.739868,527.648743 271.792603,524.402954 
	C271.932251,515.812988 271.911987,507.220428 271.955383,498.628876 
z"/>
<path fill="#212121" opacity="1.000000" stroke="none" 
	d="
M280.758240,99.182404 
	C281.270142,98.473328 281.777313,98.266388 282.596680,98.534225 
	C282.968170,110.681824 283.027496,122.354637 282.807831,134.063416 
	C282.341309,134.101898 282.153809,134.104401 281.966278,134.106918 
	C281.561646,130.051132 280.909790,126.001648 280.806183,121.938187 
	C280.617249,114.524681 280.753174,107.102890 280.758240,99.182404 
z"/>
<path fill="#212121" opacity="1.000000" stroke="none" 
	d="
M271.738953,100.106972 
	C272.198639,100.034416 272.658356,99.961861 273.469055,99.877090 
	C273.643463,110.683617 273.466858,121.502373 272.824615,132.741852 
	C271.906006,133.108353 271.453033,133.054153 270.994934,132.576736 
	C271.179291,121.770836 271.368805,111.388145 271.644165,100.789001 
	C271.730011,100.572563 271.738953,100.106964 271.738953,100.106972 
z"/>
<path fill="#424242" opacity="1.000000" stroke="none" 
	d="
M201.199097,407.061707 
	C200.460495,406.878204 200.216217,406.651184 200.354385,406.103760 
	C209.735504,405.771790 218.734451,405.800354 227.732788,405.739075 
	C240.213943,405.654083 252.694641,405.501587 265.216064,405.606506 
	C265.256592,405.835022 265.694275,405.989563 265.694275,405.989563 
	C263.977570,406.328461 262.261963,406.955750 260.544037,406.962189 
	C240.927353,407.035492 221.310333,407.014191 201.199097,407.061707 
z"/>
<path fill="#010101" opacity="1.000000" stroke="none" 
	d="
M282.293549,499.806885 
	C282.293549,499.806885 282.558044,499.921967 282.673187,499.832611 
	C282.802460,510.159760 282.816559,520.576233 282.493469,531.456177 
	C281.770477,531.946594 281.384613,531.973572 280.998779,532.000488 
	C280.948547,521.640259 280.898315,511.279968 281.237244,500.384674 
	C281.848755,499.835358 282.071167,499.821106 282.293549,499.806885 
z"/>
<path fill="#212121" opacity="1.000000" stroke="none" 
	d="
M272.174988,48.101318 
	C271.585388,38.934750 271.340057,29.810932 271.158966,20.685841 
	C271.153900,20.431593 271.836670,20.163706 272.607178,19.924152 
	C273.315002,26.820211 273.635864,33.693478 273.900940,40.568890 
	C273.983459,42.709202 273.915070,44.855331 273.924561,47.459717 
	C273.464996,47.995052 272.996582,48.069469 272.174988,48.101318 
z"/>
<path fill="#010101" opacity="1.000000" stroke="none" 
	d="
M415.152710,479.205170 
	C415.399841,496.407745 415.420654,513.748108 415.096039,531.587158 
	C414.508789,532.049866 414.266907,532.013855 414.025055,531.977905 
	C414.004547,515.289795 413.984009,498.601715 413.961975,481.133667 
	C413.957550,480.135315 413.954620,479.916870 413.951691,479.698425 
	C414.276611,479.579956 414.601532,479.461456 415.152710,479.205170 
z"/>
<path fill="#010101" opacity="1.000000" stroke="none" 
	d="
M282.861572,46.902184 
	C282.425812,46.944416 281.990021,46.986649 281.225525,47.014694 
	C280.880371,39.303226 280.863953,31.605940 281.198181,23.371283 
	C281.950714,22.917515 282.352570,23.001118 282.791016,23.546667 
	C282.838959,31.639801 282.850250,39.270988 282.861572,46.902184 
z"/>
<path fill="#010101" opacity="1.000000" stroke="none" 
	d="
M415.554565,21.935764 
	C415.510498,36.989994 415.466400,52.044228 415.393005,67.572098 
	C415.115906,68.008064 414.868134,67.970390 414.270508,67.558197 
	C413.878937,66.793152 413.837250,66.402634 413.795563,66.012115 
	C413.865875,51.675316 413.936188,37.338512 414.419434,22.549978 
	C415.073120,22.044085 415.313843,21.989923 415.554565,21.935764 
z"/>
<path fill="#7F7F7F" opacity="1.000000" stroke="none" 
	d="
M23.772591,147.355499 
	C24.087919,147.795929 24.044744,148.176880 23.752346,149.057419 
	C21.637121,151.371140 19.771118,153.185272 17.905113,154.999405 
	C17.483671,154.982925 17.062231,154.966446 16.325562,154.978165 
	C16.693855,150.722809 19.187645,148.177536 23.772591,147.355499 
z"/>
<path fill="#F9F9FA" opacity="1.000000" stroke="none" 
	d="
M271.000092,132.999939 
	C271.453033,133.054153 271.906006,133.108353 272.700806,133.148193 
	C272.593781,137.809021 269.459869,139.440460 264.918335,139.893723 
	C264.733582,139.447830 264.957764,139.048111 265.485565,138.255035 
	C267.526123,136.241074 269.263092,134.620499 271.000092,132.999939 
z"/>
<path fill="#131313" opacity="1.000000" stroke="none" 
	d="
M404.070129,119.874626 
	C404.593781,120.052765 405.117432,120.230911 405.845215,120.602821 
	C405.824188,124.634743 405.598999,128.472900 404.874420,132.680176 
	C403.943665,133.022263 403.512268,132.995209 403.161621,132.559540 
	C403.518250,128.058823 403.794189,123.966721 404.070129,119.874626 
z"/>
<path fill="#FCFCFC" opacity="1.000000" stroke="none" 
	d="
M404.996338,19.546528 
	C404.639709,20.037746 404.242218,20.199915 403.410828,20.602606 
	C401.392090,19.053930 399.807220,17.264732 398.222321,15.475541 
	C398.181396,15.193030 398.140503,14.910515 398.092346,14.199868 
	C401.101624,14.670518 404.027069,15.684235 404.996338,19.546528 
z"/>
<path fill="#4E4E4E" opacity="1.000000" stroke="none" 
	d="
M282.754425,23.084723 
	C282.352570,23.001118 281.950714,22.917515 281.247925,22.903196 
	C281.343323,18.295315 283.417572,14.955737 288.618713,13.890129 
	C288.984833,14.159382 288.980560,14.352152 288.716553,15.031275 
	C286.556000,18.039991 284.655212,20.562357 282.754425,23.084723 
z"/>
<path fill="#FBFBFB" opacity="1.000000" stroke="none" 
	d="
M138.150177,533.939270 
	C138.150162,533.939270 138.600388,533.988220 138.801819,534.091675 
	C141.335709,539.476257 137.124756,539.160950 133.644760,539.730103 
	C133.099792,539.390198 133.043579,539.209045 133.174988,538.754150 
	C134.958466,536.966736 136.554321,535.453003 138.150177,533.939270 
z"/>
<path fill="#F4F4F4" opacity="1.000000" stroke="none" 
	d="
M414.990448,133.351837 
	C416.795105,134.484924 418.578156,136.012466 420.606934,137.747284 
	C420.836151,138.141495 420.819580,138.328445 420.778320,138.795853 
	C417.070465,139.204330 414.812500,137.785507 414.990448,133.351837 
z"/>
<path fill="#F4F4F4" opacity="1.000000" stroke="none" 
	d="
M417.070984,126.577370 
	C416.721680,128.434799 416.138763,130.036972 415.262207,131.890808 
	C414.305389,129.801971 413.642212,127.461456 412.976440,124.707397 
	C414.261719,124.969933 415.549591,125.646027 417.070984,126.577370 
z"/>
<path fill="#FBFBFB" opacity="1.000000" stroke="none" 
	d="
M281.980835,134.470245 
	C282.153809,134.104401 282.341309,134.101898 283.135315,134.090515 
	C285.107758,135.377243 286.473694,136.672852 287.839661,137.968445 
	C287.965424,138.396179 288.091187,138.823914 288.402344,139.539261 
	C286.390259,138.162445 284.192810,136.498016 281.980835,134.470245 
z"/>
<path fill="#7F7F7F" opacity="1.000000" stroke="none" 
	d="
M415.765015,21.705967 
	C415.313843,21.989923 415.073120,22.044085 414.462463,22.087929 
	C414.435303,18.049057 416.183777,15.070730 420.619537,13.902992 
	C420.961182,14.216558 420.939026,14.455512 420.958069,15.052076 
	C419.324615,17.431849 417.650024,19.454010 415.765015,21.705967 
z"/>
<path fill="#868686" opacity="1.000000" stroke="none" 
	d="
M266.382172,273.096954 
	C265.978455,272.660614 265.938782,272.296204 266.159637,271.439148 
	C268.027649,269.603516 269.635162,268.260468 271.242676,266.917419 
	C271.528839,266.917145 271.815033,266.916901 272.529846,266.939331 
	C270.887726,269.030975 268.816956,271.099915 266.382172,273.096954 
z"/>
<path fill="#868686" opacity="1.000000" stroke="none" 
	d="
M23.104397,271.259430 
	C23.059982,271.642395 23.015568,272.025330 22.989752,272.698181 
	C20.735245,271.177673 18.462139,269.367249 16.205357,267.210602 
	C16.706812,266.906464 17.191940,266.948547 18.312737,267.147888 
	C20.333733,268.623230 21.719063,269.941315 23.104397,271.259430 
z"/>
<path fill="#FBFBFB" opacity="1.000000" stroke="none" 
	d="
M403.080902,132.968155 
	C403.512268,132.995209 403.943665,133.022263 404.699188,133.061081 
	C405.096436,136.937317 402.690277,138.062393 398.963837,138.290390 
	C398.551727,138.396774 398.581879,138.352829 398.745728,137.983856 
	C400.300018,136.065979 401.690460,134.517059 403.080902,132.968155 
z"/>
<path fill="#727272" opacity="1.000000" stroke="none" 
	d="
M264.990082,149.082901 
	C265.038208,148.812073 265.086365,148.541260 265.240936,147.871490 
	C267.633240,148.974564 269.919128,150.476593 272.262421,152.327957 
	C272.113464,152.771729 271.907104,152.866150 271.059692,152.831635 
	C268.609131,151.496109 266.799622,150.289505 264.990082,149.082901 
z"/>
<path fill="#FBFBFB" opacity="1.000000" stroke="none" 
	d="
M19.680155,416.051270 
	C20.475767,416.366272 20.930721,416.725616 21.646334,417.531799 
	C20.717186,418.984711 19.527380,419.990814 18.337578,420.996918 
	C18.039049,420.783813 17.740517,420.570740 17.220776,420.194122 
	C17.779547,418.718933 18.559523,417.407288 19.680155,416.051270 
z"/>
<path fill="#FBFBFB" opacity="1.000000" stroke="none" 
	d="
M404.937469,152.777603 
	C404.497528,153.044525 404.040527,152.967865 402.887878,152.897339 
	C401.430359,151.835983 400.668549,150.768478 399.906738,149.700974 
	C399.906738,149.700974 399.592773,149.543304 399.564026,149.370316 
	C401.330292,150.276215 403.125366,151.355118 404.937469,152.777603 
z"/>
<path fill="#868686" opacity="1.000000" stroke="none" 
	d="
M415.554901,155.931580 
	C415.307556,155.965897 415.060181,156.000198 414.438416,156.046844 
	C414.776337,154.145554 415.488647,152.231949 416.890564,150.201218 
	C418.132874,150.105621 418.685638,150.127151 419.088257,150.437775 
	C417.810425,152.461777 416.682648,154.196671 415.554901,155.931580 
z"/>
<path fill="#868686" opacity="1.000000" stroke="none" 
	d="
M15.849066,399.419434 
	C16.323408,399.034607 16.728441,399.006622 17.643066,399.243134 
	C18.812389,400.669739 19.472118,401.831879 19.994385,403.251984 
	C19.575119,404.015045 19.293314,404.520111 19.011505,405.025177 
	C17.934254,403.275543 16.857004,401.525940 15.849066,399.419434 
z"/>
<path fill="#727272" opacity="1.000000" stroke="none" 
	d="
M397.287415,540.894104 
	C396.927917,540.519653 396.863953,540.196838 396.757507,539.643433 
	C398.356537,538.648254 399.918274,537.899536 402.099121,536.904053 
	C402.944824,536.750061 403.171387,536.842773 403.397949,536.935425 
	C401.486176,538.266968 399.574432,539.598450 397.287415,540.894104 
z"/>
<path fill="#424242" opacity="1.000000" stroke="none" 
	d="
M280.922760,532.349548 
	C281.384613,531.973572 281.770477,531.946594 282.448853,531.917480 
	C283.177643,533.307983 283.613922,534.700623 283.901794,536.654785 
	C283.613953,537.354004 283.474487,537.491577 283.335052,537.629150 
	C282.505615,535.985657 281.676178,534.342102 280.922760,532.349548 
z"/>
<path fill="#FBFBFB" opacity="1.000000" stroke="none" 
	d="
M536.954224,151.464096 
	C536.561401,151.839386 536.119080,151.872650 535.002808,151.903442 
	C533.876526,150.943344 533.424255,149.985733 532.984619,149.015259 
	C532.997375,149.002380 533.022949,148.975754 533.022949,148.975739 
	C534.316833,149.691177 535.610779,150.406616 536.954224,151.464096 
z"/>
<path fill="#FBFBFB" opacity="1.000000" stroke="none" 
	d="
M271.037079,400.985809 
	C271.463470,400.959839 271.889832,400.933899 272.636383,400.894440 
	C272.634552,402.741394 272.701691,405.002960 269.332092,404.031525 
	C268.994659,403.993347 268.947998,403.945740 268.992310,403.627472 
	C269.703430,402.534760 270.370270,401.760284 271.037079,400.985809 
z"/>
<path fill="#646464" opacity="1.000000" stroke="none" 
	d="
M148.937653,533.368530 
	C149.369293,532.921509 149.741257,532.841248 150.611450,533.124817 
	C151.470276,534.677063 151.830872,535.865479 151.868668,537.125610 
	C151.366409,537.325256 151.186935,537.453308 151.007477,537.581299 
	C150.297638,536.299316 149.587814,535.017273 148.937653,533.368530 
z"/>
<path fill="#FBFBFB" opacity="1.000000" stroke="none" 
	d="
M269.018250,404.016907 
	C269.066803,405.983948 268.791077,407.534180 265.985046,406.072632 
	C265.694275,405.989563 265.256592,405.835022 265.281982,405.301025 
	C266.520905,404.493256 267.734467,404.219513 268.947998,403.945740 
	C268.947998,403.945740 268.994659,403.993347 269.018250,404.016907 
z"/>
<path fill="#727272" opacity="1.000000" stroke="none" 
	d="
M419.238373,150.148682 
	C418.685638,150.127151 418.132874,150.105621 417.172577,150.005981 
	C418.207550,149.181061 419.650085,148.434265 421.455811,147.690079 
	C421.858490,147.924683 421.897949,148.156662 421.740845,148.928055 
	C420.775696,149.694550 420.007019,149.921616 419.238373,150.148682 
z"/>
<path fill="#424242" opacity="1.000000" stroke="none" 
	d="
M283.966858,537.014404 
	C285.470490,537.667297 286.760712,538.522034 288.050903,539.376770 
	C287.881744,539.729370 287.712585,540.082031 287.543457,540.434631 
	C286.249481,539.723206 284.955536,539.011780 283.498322,537.964722 
	C283.474487,537.491577 283.613953,537.354004 283.966858,537.014404 
z"/>
<path fill="#7F7F7F" opacity="1.000000" stroke="none" 
	d="
M413.943359,532.351318 
	C414.266907,532.013855 414.508789,532.049866 415.116241,532.056519 
	C416.043549,533.479248 416.605255,534.931274 416.901611,536.804504 
	C416.422241,537.309204 416.208130,537.392700 415.994049,537.476196 
	C415.283234,535.892334 414.572449,534.308533 413.943359,532.351318 
z"/>
<path fill="#FBFBFB" opacity="1.000000" stroke="none" 
	d="
M535.571350,401.294128 
	C536.299927,401.121155 536.797241,401.171234 537.671265,401.190094 
	C537.345154,402.040344 536.642334,402.921844 535.602478,403.689636 
	C535.265442,403.575958 535.021667,403.393829 535.021667,403.393829 
	C535.127808,402.768280 535.234009,402.142700 535.571350,401.294128 
z"/>
<path fill="#868686" opacity="1.000000" stroke="none" 
	d="
M531.349426,273.120850 
	C531.000549,272.688751 530.963318,272.326782 531.171509,271.461182 
	C532.279785,270.641449 533.142822,270.325409 534.020691,270.402649 
	C534.034363,271.058289 534.033142,271.320679 534.031921,271.583069 
	C533.241638,272.119049 532.451355,272.654999 531.349426,273.120850 
z"/>
<path fill="#212121" opacity="1.000000" stroke="none" 
	d="
M150.603165,21.714739 
	C150.431702,22.076542 149.994781,22.165133 149.994781,22.165133 
	C149.994781,22.165133 149.555023,22.091898 149.335388,22.055920 
	C149.586258,20.845816 150.056778,19.671692 150.796631,18.735615 
	C150.968857,19.766752 150.871735,20.559845 150.603165,21.714739 
z"/>
<path fill="#FBFBFB" opacity="1.000000" stroke="none" 
	d="
M19.164015,405.264465 
	C19.293314,404.520111 19.575119,404.015045 20.283607,403.289307 
	C21.141186,403.636292 21.572079,404.203949 21.753922,404.923157 
	C21.302834,405.392151 21.100794,405.709625 20.898756,406.027100 
	C20.371346,405.852661 19.843933,405.678223 19.164015,405.264465 
z"/>
<path fill="#727272" opacity="1.000000" stroke="none" 
	d="
M157.132065,539.369751 
	C157.109390,539.701843 157.086716,540.033875 157.069901,540.621948 
	C156.152328,540.428589 155.228882,539.979187 154.133881,539.008545 
	C153.969040,538.311340 153.975754,538.135315 154.276657,538.151917 
	C155.424591,538.686218 156.278320,539.028015 157.132065,539.369751 
z"/>
<path fill="#FBFBFB" opacity="1.000000" stroke="none" 
	d="
M416.052948,537.733521 
	C416.208130,537.392700 416.422241,537.309204 416.971436,537.143677 
	C417.834351,537.368530 418.362152,537.675415 418.663086,538.391479 
	C418.225861,538.853882 418.015533,538.906982 417.805176,538.960144 
	C417.240723,538.637024 416.676300,538.313904 416.052948,537.733521 
z"/>
<path fill="#FBFBFB" opacity="1.000000" stroke="none" 
	d="
M403.683044,536.891602 
	C403.171387,536.842773 402.944824,536.750061 402.352325,536.625916 
	C402.191742,536.132812 402.397095,535.671021 402.834412,535.090332 
	C403.494598,534.993042 403.922821,535.014648 404.671478,535.006409 
	C404.650635,535.600220 404.309387,536.223999 403.683044,536.891602 
z"/>
<path fill="#FBFBFB" opacity="1.000000" stroke="none" 
	d="
M153.982483,537.959351 
	C153.975754,538.135315 153.969040,538.311340 153.907562,538.745850 
	C152.962250,538.715149 152.071686,538.425903 151.094299,537.859009 
	C151.186935,537.453308 151.366409,537.325256 152.139847,537.127747 
	C153.150040,537.358582 153.566254,537.658936 153.982483,537.959351 
z"/>
<path fill="#FBFBFB" opacity="1.000000" stroke="none" 
	d="
M271.041412,534.983704 
	C271.464783,534.957581 271.888184,534.931396 272.628693,534.879517 
	C272.565399,535.526306 272.184998,536.198792 271.204346,536.796875 
	C270.400482,536.685974 270.196808,536.649475 270.025513,536.354004 
	C270.385712,535.724609 270.713562,535.354187 271.041412,534.983704 
z"/>
<path fill="#727272" opacity="1.000000" stroke="none" 
	d="
M417.957275,539.282837 
	C418.015533,538.906982 418.225861,538.853882 418.716949,538.636047 
	C419.813690,538.637573 420.629669,538.803833 421.813873,539.165039 
	C422.176880,539.685669 422.171661,540.011169 422.133850,540.585938 
	C420.770599,540.425293 419.439972,540.015381 417.957275,539.282837 
z"/>
<path fill="#424242" opacity="1.000000" stroke="none" 
	d="
M534.933472,403.641602 
	C535.021667,403.393829 535.265442,403.575958 535.209961,403.624542 
	C534.292419,404.263763 533.430420,404.854370 532.786133,405.711365 
	C533.003845,405.977783 533.009705,406.013428 533.009705,406.013428 
	C533.009705,406.013428 533.062805,405.800079 533.090027,405.689758 
	C533.693237,405.016052 534.269287,404.452698 534.933472,403.641602 
z"/>
<path fill="#424242" opacity="1.000000" stroke="none" 
	d="
M280.901154,398.343201 
	C281.375793,397.984711 281.764160,397.964050 282.586914,398.279419 
	C283.218811,399.582886 283.416351,400.550323 283.402313,401.684998 
	C283.050049,401.964172 282.909393,402.076111 282.768768,402.188080 
	C282.117462,401.019073 281.466156,399.850037 280.901154,398.343201 
z"/>
<path fill="#727272" opacity="1.000000" stroke="none" 
	d="
M530.299927,540.990295 
	C529.922424,540.592651 529.891785,540.257751 529.831299,539.659058 
	C530.646729,539.194641 531.492126,538.993958 532.769165,538.875183 
	C532.349426,539.655762 531.498108,540.354370 530.299927,540.990295 
z"/>
<path fill="#727272" opacity="1.000000" stroke="none" 
	d="
M265.287659,540.944458 
	C264.882935,540.554260 264.837250,540.222351 265.151154,539.453979 
	C266.240509,538.894897 266.970215,538.772278 268.012451,538.932678 
	C268.556641,539.374878 268.788330,539.534058 269.020020,539.693237 
	C267.895569,540.129700 266.771118,540.566223 265.287659,540.944458 
z"/>
<path fill="#727272" opacity="1.000000" stroke="none" 
	d="
M269.993164,536.612915 
	C270.196808,536.649475 270.400482,536.685974 270.889465,536.844604 
	C270.644623,537.792908 270.114441,538.619141 269.302124,539.569275 
	C268.788330,539.534058 268.556641,539.374878 268.189209,538.679199 
	C268.700012,537.632812 269.346588,537.122864 269.993164,536.612915 
z"/>
<path fill="#FBFBFB" opacity="1.000000" stroke="none" 
	d="
M530.953003,147.019119 
	C531.608093,147.457336 532.263245,147.895538 532.970642,148.654755 
	C533.022949,148.975754 532.997375,149.002380 532.777466,149.009705 
	C532.280457,149.017960 532.005310,149.041290 531.582642,148.749512 
	C531.273071,147.947708 531.113037,147.483414 530.953003,147.019119 
z"/>
<path fill="#FCFCFC" opacity="1.000000" stroke="none" 
	d="
M535.987244,17.268127 
	C535.811096,17.654263 535.614441,17.667671 535.135132,17.591244 
	C534.628601,17.060846 534.404846,16.620281 533.777100,15.974814 
	C533.373108,15.769913 533.313904,15.386734 533.313904,15.386742 
	C534.198181,15.889634 535.082458,16.392519 535.987244,17.268127 
z"/>
<path fill="#FBFBFB" opacity="1.000000" stroke="none" 
	d="
M531.095337,15.648942 
	C531.137451,15.222256 531.276611,15.126631 531.667053,14.999241 
	C532.251221,15.042742 532.584167,15.118006 533.394897,15.522747 
	C533.890869,16.141029 533.797058,16.387531 533.591248,16.591732 
	C532.791626,16.387823 531.992065,16.183912 531.095337,15.648942 
z"/>
<path fill="#868686" opacity="1.000000" stroke="none" 
	d="
M155.061691,271.539917 
	C155.061691,271.539917 155.149826,271.559753 154.814972,271.701263 
	C154.166275,272.174164 153.852417,272.505554 153.538544,272.836914 
	C153.452484,272.561035 153.329758,272.302521 153.118057,271.852112 
	C153.065750,271.642792 153.013290,271.354004 153.401337,271.244934 
	C154.213486,271.270538 154.637589,271.405243 155.061691,271.539917 
z"/>
<path fill="#727272" opacity="1.000000" stroke="none" 
	d="
M132.987381,539.027893 
	C133.043579,539.209045 133.099792,539.390198 133.346268,539.783020 
	C133.237747,540.320984 132.938965,540.647217 132.283081,540.930298 
	C131.882812,540.553284 131.839661,540.219360 132.087830,539.460999 
	C132.581909,539.033569 132.784637,539.030701 132.987381,539.027893 
z"/>
<path fill="#FCFCFC" opacity="1.000000" stroke="none" 
	d="
M413.608582,66.138947 
	C413.837250,66.402634 413.878937,66.793152 413.902863,67.479713 
	C413.590118,67.764442 413.347229,67.646179 413.069031,67.232498 
	C413.051880,66.741417 413.198547,66.481995 413.608582,66.138947 
z"/>
<path fill="#424242" opacity="1.000000" stroke="none" 
	d="
M284.037720,403.957672 
	C283.467590,403.728485 283.131165,403.263184 282.781738,402.492981 
	C282.909393,402.076111 283.050049,401.964172 283.587921,401.867615 
	C284.235992,402.338104 284.486847,402.793121 284.737732,403.248169 
	C284.582275,403.405975 284.426849,403.563751 284.037720,403.957672 
z"/>
<path fill="#424242" opacity="1.000000" stroke="none" 
	d="
M21.175907,406.148682 
	C21.100794,405.709625 21.302834,405.392151 22.014465,405.019073 
	C22.746336,405.234406 22.968615,405.505341 23.190897,405.776276 
	C23.190899,405.776276 22.901554,406.140045 22.761108,406.326538 
	C22.231462,406.432068 21.842260,406.351166 21.175907,406.148682 
z"/>
<path fill="#727272" opacity="1.000000" stroke="none" 
	d="
M530.691650,147.068695 
	C531.113037,147.483414 531.273071,147.947708 531.157349,148.810272 
	C530.598328,149.168793 530.315063,149.129028 530.031738,149.089264 
	C530.008118,148.691498 529.984497,148.293747 529.945068,147.596649 
	C530.096313,147.237640 530.263306,147.177948 530.691650,147.068695 
z"/>
<path fill="#424242" opacity="1.000000" stroke="none" 
	d="
M533.555176,16.489895 
	C533.797058,16.387531 533.890869,16.141029 533.887573,15.661787 
	C533.902405,15.471349 533.654663,15.143296 533.484253,15.265015 
	C533.313904,15.386734 533.373108,15.769913 533.528076,15.885346 
	C533.682983,16.000780 533.519104,16.388060 533.555176,16.489895 
z"/>
<path fill="#FBFBFB" opacity="1.000000" stroke="none" 
	d="
M127.339569,414.608643 
	C127.203651,414.914673 126.958076,414.909546 126.353531,414.821442 
	C126.009354,414.295166 126.024162,413.851837 126.068901,413.076996 
	C126.475868,413.262787 126.852898,413.780151 127.339569,414.608643 
z"/>
<path fill="#424242" opacity="1.000000" stroke="none" 
	d="
M282.095520,499.568787 
	C282.071167,499.821106 281.848755,499.835358 281.299347,499.918823 
	C280.972321,499.988037 280.725861,499.622009 280.708923,499.402496 
	C281.093842,499.232208 281.495636,499.281464 282.095520,499.568787 
z"/>
<path fill="#FBFBFB" opacity="1.000000" stroke="none" 
	d="
M413.686890,479.688568 
	C413.954620,479.916870 413.957550,480.135315 413.878235,480.670898 
	C413.520630,480.861542 413.307465,480.666931 413.076843,480.199860 
	C413.138824,479.889893 413.280426,479.784302 413.686890,479.688568 
z"/>
<path fill="#FCFCFC" opacity="1.000000" stroke="none" 
	d="
M148.083710,110.436859 
	C148.106369,110.423737 148.221298,110.582703 148.131317,110.567215 
	C148.041351,110.551735 148.061050,110.449974 148.083710,110.436859 
z"/>
<path fill="#868686" opacity="1.000000" stroke="none" 
	d="
M448.312805,272.091034 
	C448.386963,271.995483 448.553345,272.360809 448.683838,273.027557 
	C448.647888,273.329010 448.601135,273.396423 448.586609,273.436646 
	C448.516388,273.168488 448.460693,272.860168 448.312805,272.091034 
z"/>
<path fill="#F9F9FA" opacity="1.000000" stroke="none" 
	d="
M200.554138,139.407135 
	C200.596771,139.264175 201.017426,139.532501 201.206940,139.696106 
	C201.189667,139.894165 200.982849,139.928619 200.463470,139.983948 
	C200.205658,139.801331 200.325867,139.649765 200.554138,139.407135 
z"/>
<path fill="#424242" opacity="1.000000" stroke="none" 
	d="
M533.025513,405.986816 
	C533.047180,405.995819 533.085693,406.193024 533.085693,406.193024 
	C533.085693,406.193024 533.147644,405.930359 533.078674,405.971893 
	C533.009705,406.013428 533.003845,405.977783 533.025513,405.986816 
z"/>
<path fill="#FBFBFB" opacity="1.000000" stroke="none" 
	d="
M413.628540,251.102661 
	C413.795929,251.011505 413.967529,251.417328 413.973755,251.636932 
	C413.979950,251.856522 413.492889,251.913284 413.254059,251.857727 
	C413.104553,251.555923 413.253174,251.353134 413.628540,251.102661 
z"/>
<path fill="#424242" opacity="1.000000" stroke="none" 
	d="
M536.054810,269.061340 
	C536.167053,269.624146 536.054749,269.999817 535.522156,270.280640 
	C534.951477,269.999664 534.801086,269.813507 534.702026,269.400787 
	C534.885559,268.879883 535.093811,268.656464 535.378052,268.503876 
	C535.528809,268.627289 535.679565,268.750732 536.054810,269.061340 
z"/>
<path fill="#424242" opacity="1.000000" stroke="none" 
	d="
M534.322754,271.551025 
	C534.033142,271.320679 534.034363,271.058289 534.156189,270.263733 
	C534.276794,269.731537 534.650696,269.627380 534.650696,269.627380 
	C534.801086,269.813507 534.951477,269.999664 535.304565,270.482605 
	C535.209351,271.025909 534.911438,271.272461 534.322754,271.551025 
z"/>
<path fill="#FBFBFB" opacity="1.000000" stroke="none" 
	d="
M153.926117,272.880676 
	C153.852417,272.505554 154.166275,272.174164 154.816925,271.746399 
	C155.124008,271.868439 155.094315,272.086823 155.078598,272.635559 
	C154.832947,272.952057 154.573303,272.938263 153.926117,272.880676 
z"/>
<path fill="#FEFEFE" opacity="1.000000" stroke="none" 
	d="
M22.461788,137.969711 
	C22.461788,137.969711 22.493023,138.015335 22.445110,137.631653 
	C18.673525,134.991638 17.762754,131.469742 17.766518,127.405373 
	C17.797962,93.441704 17.743744,59.477833 17.869408,25.514593 
	C17.878653,23.015564 19.088673,20.520975 20.045324,17.934845 
	C20.896217,17.242418 21.442232,16.639467 22.393681,15.923033 
	C24.578058,15.608782 26.356817,15.234774 28.135965,15.232910 
	C61.433041,15.198024 94.730179,15.201220 128.027267,15.222552 
	C130.016724,15.223826 132.006042,15.444334 134.189270,15.805351 
	C135.893509,18.035429 137.403915,20.022982 138.854950,22.475414 
	C138.788422,34.604542 138.751282,46.268864 138.780655,57.933018 
	C138.833923,79.089417 138.926804,100.245728 139.003143,121.402069 
	C135.228378,126.747955 131.453613,132.093842 126.981491,137.591263 
	C92.169121,137.781311 58.054092,137.819839 23.556519,137.710663 
	C22.936575,137.698547 22.699183,137.834137 22.461788,137.969711 
z"/>
<path fill="#FEFEFE" opacity="1.000000" stroke="none" 
	d="
M133.174988,538.754150 
	C132.784637,539.030701 132.581909,539.033569 132.126770,539.206177 
	C96.589195,539.368469 61.304039,539.360962 25.558004,539.394531 
	C20.107811,538.705505 17.866238,535.345886 17.856522,530.778809 
	C17.780746,495.153503 17.857471,459.527924 17.903044,423.902435 
	C17.903883,423.245178 18.100742,422.588196 18.271858,421.463989 
	C19.527380,419.990814 20.717186,418.984711 21.953064,417.673401 
	C28.991312,417.261047 35.983356,417.071960 42.975685,417.061066 
	C71.299477,417.016876 99.623360,417.027466 128.398834,416.961914 
	C132.130600,421.310913 135.410736,425.715820 138.840576,430.397217 
	C138.917664,460.213226 138.864182,489.752747 138.752502,519.292114 
	C138.735062,523.905518 138.452530,528.517883 138.221375,533.535034 
	C136.554321,535.453003 134.958466,536.966736 133.174988,538.754150 
z"/>
<path fill="#FFFFFF" opacity="1.000000" stroke="none" 
	d="
M534.702026,269.400787 
	C534.650696,269.627380 534.276794,269.731537 534.141296,269.870453 
	C533.142822,270.325409 532.279785,270.641449 531.152344,271.180939 
	C503.634186,271.403473 476.380463,271.402588 448.682373,271.397278 
	C446.070740,258.007507 439.107147,252.005997 425.750580,251.994537 
	C422.606323,251.991852 419.462097,251.947906 415.880005,251.885178 
	C415.446533,220.189346 415.450928,188.531250 415.505127,156.402374 
	C416.682648,154.196671 417.810425,152.461777 419.088257,150.437775 
	C420.007019,149.921616 420.775696,149.694550 421.776642,149.279205 
	C457.704773,149.130615 493.400604,149.170319 529.564087,149.149628 
	C530.315063,149.129028 530.598328,149.168793 531.306824,149.147781 
	C532.005310,149.041290 532.280457,149.017960 532.764709,149.022568 
	C533.424255,149.985733 533.876526,150.943344 534.673523,151.953522 
	C535.645447,154.674423 536.808655,157.340820 536.818542,160.011490 
	C536.942627,193.503464 536.925232,226.996124 536.847229,260.488373 
	C536.841553,262.913300 536.083618,265.336456 535.526733,268.132141 
	C535.093811,268.656464 534.885559,268.879883 534.702026,269.400787 
z"/>
<path fill="#FEFEFE" opacity="1.000000" stroke="none" 
	d="
M155.519760,271.451172 
	C154.637589,271.405243 154.213486,271.270538 153.450439,271.106628 
	C153.099747,270.850647 153.088028,270.623840 153.036819,269.826111 
	C152.777313,268.862946 152.557266,268.470734 152.337234,268.078491 
	C151.603088,251.174866 154.227753,234.634628 158.118454,218.292801 
	C163.716354,194.780380 173.125732,172.944092 187.758316,153.538132 
	C188.851624,152.088165 190.129730,150.777527 191.577332,149.205841 
	C215.908676,149.074554 239.984619,149.139542 264.525330,149.143723 
	C266.799622,150.289505 268.609131,151.496109 270.719849,152.851212 
	C271.260620,154.631119 271.707520,156.262283 271.709320,157.893951 
	C271.748169,193.111938 271.738861,228.329971 271.726654,263.548004 
	C271.726349,264.373138 271.585114,265.198242 271.376160,266.470398 
	C269.635162,268.260468 268.027649,269.603516 266.152130,271.158813 
	C229.248672,271.368195 192.613251,271.365326 155.519760,271.451172 
z"/>
<path fill="#FFFFFF" opacity="1.000000" stroke="none" 
	d="
M268.992310,403.627502 
	C267.734467,404.219513 266.520905,404.493256 265.241455,405.072510 
	C252.694641,405.501587 240.213943,405.654083 227.732788,405.739075 
	C218.734451,405.800354 209.735504,405.771790 200.249573,405.874329 
	C194.548401,399.999359 188.741684,394.448151 184.226059,387.993622 
	C167.154068,363.591309 157.709747,336.217041 154.050598,306.778442 
	C153.232788,300.199066 152.789932,293.573120 152.228882,286.539673 
	C155.327194,285.098511 158.365601,283.225586 161.415787,283.206146 
	C194.573532,282.994843 227.733154,283.057312 260.892151,283.113434 
	C263.004944,283.117035 265.116730,283.686035 267.758453,284.301666 
	C268.499542,284.817291 268.750305,284.948456 269.040192,285.004761 
	C269.795990,285.830933 270.551788,286.657104 271.301575,287.826233 
	C271.471619,290.129211 271.799103,292.089111 271.801056,294.049316 
	C271.832886,326.148071 271.845520,358.246887 271.790344,390.345581 
	C271.784760,393.608246 271.315857,396.870148 271.049500,400.559082 
	C270.370270,401.760284 269.703430,402.534760 268.992310,403.627502 
z"/>
<path fill="#FEFEFE" opacity="1.000000" stroke="none" 
	d="
M399.465027,149.548462 
	C400.668549,150.768478 401.430359,151.835983 402.542480,152.936279 
	C403.232239,154.892288 403.863831,156.814957 403.867462,158.738785 
	C403.925049,189.190506 403.902100,219.642380 403.663208,250.648346 
	C403.233795,251.359406 403.096161,251.556412 403.015869,251.793503 
	C374.764893,251.862366 346.513794,251.901962 318.263000,252.014328 
	C306.807678,252.059906 295.352997,252.264084 283.427612,252.466919 
	C282.916534,220.692459 282.875824,188.847153 282.804626,156.538971 
	C284.003357,152.174591 285.889374,149.227142 290.679413,149.240067 
	C326.793945,149.337540 362.908661,149.354095 399.465027,149.548462 
z"/>
<path fill="#FEFEFE" opacity="1.000000" stroke="none" 
	d="
M285.025970,403.475159 
	C284.486847,402.793121 284.235992,402.338104 283.799500,401.700439 
	C283.416351,400.550323 283.218811,399.582886 282.881348,398.271851 
	C282.784973,365.313171 282.828491,332.698029 282.902252,299.632355 
	C285.221466,299.454346 287.510071,299.960419 289.799500,299.964233 
	C321.101807,300.016510 352.404205,299.999390 383.706604,299.999390 
	C385.511353,299.999390 387.316101,299.999420 389.341003,299.999420 
	C389.489380,301.477478 389.699310,302.596863 389.699921,303.716370 
	C389.717499,336.517273 389.716888,369.318146 389.701355,402.119049 
	C389.700897,403.104553 389.508728,404.090027 389.257843,405.445251 
	C357.176758,405.794006 325.243500,405.821594 293.311157,405.663391 
	C290.642365,405.650208 287.979706,404.385437 285.025970,403.475159 
z"/>
<path fill="#FFFFFF" opacity="1.000000" stroke="none" 
	d="
M23.644402,405.741638 
	C22.968615,405.505341 22.746336,405.234406 22.263512,404.867554 
	C21.572079,404.203949 21.141186,403.636292 20.421070,403.031311 
	C19.472118,401.831879 18.812389,400.669739 17.951067,399.197693 
	C17.735308,362.567993 17.721144,326.248260 17.788807,289.465607 
	C20.321497,284.398438 24.091337,282.929535 29.307938,282.995605 
	C49.179996,283.247314 69.057114,283.100250 89.389481,283.110168 
	C90.991096,318.030334 96.395981,352.067413 110.929314,384.170258 
	C114.137169,391.256104 117.831306,398.121796 121.381866,405.452087 
	C89.007431,405.779205 56.552670,405.743103 23.644402,405.741638 
z"/>
<path fill="#FEFEFE" opacity="1.000000" stroke="none" 
	d="
M23.564083,271.310272 
	C21.719063,269.941315 20.333733,268.623230 18.677921,267.151794 
	C18.127636,265.538300 17.603535,264.078094 17.603796,262.617981 
	C17.610163,227.053055 17.672352,191.488144 17.814814,155.461304 
	C19.771118,153.185272 21.637121,151.371140 23.755199,149.345428 
	C55.778938,149.163452 87.550606,149.193054 119.830284,149.214447 
	C115.547859,159.967926 110.283081,170.547150 106.059326,181.526871 
	C95.069183,210.095901 90.793922,239.965500 89.930504,270.912659 
	C67.926689,271.390289 45.975231,271.375702 23.564083,271.310272 
z"/>
<path fill="#FEFEFE" opacity="1.000000" stroke="none" 
	d="
M270.025513,536.354004 
	C269.346588,537.122864 268.700012,537.632812 267.876678,538.396240 
	C266.970215,538.772278 266.240509,538.894897 265.188904,539.200134 
	C229.262039,539.370544 193.657028,539.358337 157.592041,539.357910 
	C156.278320,539.028015 155.424591,538.686218 154.276672,538.151917 
	C153.566254,537.658936 153.150040,537.358582 152.462646,537.056030 
	C151.830872,535.865479 151.470276,534.677063 150.891479,533.186646 
	C150.664993,503.517059 150.656723,474.149445 150.662903,444.294189 
	C151.658661,444.317963 152.822845,444.636444 153.594772,445.368561 
	C181.732773,472.054993 215.411575,487.631378 253.146881,495.064880 
	C259.180481,496.253448 265.259827,497.209656 271.636719,498.451111 
	C271.911987,507.220428 271.932251,515.812988 271.792603,524.402954 
	C271.739868,527.648743 271.317657,530.888489 271.052643,534.557373 
	C270.713562,535.354187 270.385712,535.724609 270.025513,536.354004 
z"/>
<path fill="#FCFCFD" opacity="1.000000" stroke="none" 
	d="
M282.791016,23.546667 
	C284.655212,20.562357 286.556000,18.039991 288.735779,15.319859 
	C325.099579,15.168159 361.184387,15.214228 397.745728,15.367916 
	C399.807220,17.264732 401.392090,19.053930 403.279968,20.918764 
	C403.688965,34.353752 403.794983,47.713104 403.445496,61.536598 
	C402.230316,62.034874 401.470673,62.069004 400.711029,62.103134 
	C385.363403,58.052002 370.148926,53.367886 354.635681,50.103867 
	C333.433777,45.642937 311.869934,44.970936 290.256042,46.713951 
	C288.107086,46.887249 285.945343,46.901272 283.325562,46.945694 
	C282.850250,39.270988 282.838959,31.639801 282.791016,23.546667 
z"/>
<path fill="#FCFCFC" opacity="1.000000" stroke="none" 
	d="
M403.161621,132.559540 
	C401.690460,134.517059 400.300018,136.065979 398.751373,137.957825 
	C397.496368,138.019119 396.399597,137.491638 395.302765,137.491516 
	C359.728241,137.487701 324.153687,137.534668 288.209412,137.771240 
	C286.473694,136.672852 285.107758,135.377243 283.414307,134.054550 
	C283.027496,122.354637 282.968170,110.681824 282.888428,98.549301 
	C296.090149,97.487656 309.341095,96.022110 322.528351,96.462898 
	C350.290924,97.390862 376.272003,105.692184 401.095001,117.845070 
	C401.983551,118.280106 402.813416,118.835144 403.870361,119.604431 
	C403.794189,123.966721 403.518250,128.058823 403.161621,132.559540 
z"/>
<path fill="#FEFEFE" opacity="1.000000" stroke="none" 
	d="
M283.367371,447.050476 
	C282.984467,439.936829 282.962952,432.958405 283.016846,425.980499 
	C283.069672,419.141388 285.140839,417.034027 291.953705,417.028107 
	C324.020905,417.000305 356.088135,417.011871 388.634918,416.985168 
	C389.308472,420.406799 389.728027,423.863281 389.564789,427.292053 
	C389.513000,428.380341 388.114685,429.781189 386.983459,430.385284 
	C368.546051,440.230804 348.779419,446.231262 328.051483,447.675110 
	C313.370850,448.697784 298.530731,447.430817 283.367371,447.050476 
z"/>
<path fill="#FBFBFB" opacity="1.000000" stroke="none" 
	d="
M270.994934,132.576721 
	C269.263092,134.620499 267.526123,136.241074 265.466736,137.910736 
	C245.069458,137.865479 224.994568,137.771133 204.457001,137.270844 
	C203.960983,136.487656 203.927658,136.110382 203.894333,135.733124 
	C222.169632,117.982498 243.833481,106.472061 269.317627,100.755363 
	C270.564911,100.932564 271.061615,100.969002 271.558319,101.005447 
	C271.368805,111.388145 271.179291,121.770836 270.994934,132.576721 
z"/>
<path fill="#353535" opacity="1.000000" stroke="none" 
	d="
M23.939070,137.858368 
	C58.054092,137.819839 92.169121,137.781311 126.768852,137.831955 
	C127.000114,138.311188 126.746666,138.701233 126.379028,139.291077 
	C92.406303,139.484390 58.547756,139.477890 24.311768,138.991302 
	C23.935909,138.293594 23.937489,138.075974 23.939070,137.858368 
z"/>
<path fill="#4E4E4E" opacity="1.000000" stroke="none" 
	d="
M139.242783,121.244232 
	C138.926804,100.245728 138.833923,79.089417 138.780655,57.933018 
	C138.751282,46.268864 138.788422,34.604542 139.148300,22.465008 
	C139.890656,22.022776 140.280273,22.055826 140.669891,22.088879 
	C140.750305,41.738766 140.845901,61.388611 140.905502,81.038559 
	C140.941879,93.032547 140.922882,105.026703 140.956085,117.750740 
	C140.990875,118.659164 140.998352,118.837639 141.005814,119.016121 
	C141.005814,119.016121 140.997818,118.999260 140.771179,119.112076 
	C140.405991,119.536743 140.267441,119.848610 140.128906,120.160477 
	C139.913406,120.469116 139.697906,120.777756 139.242783,121.244232 
z"/>
<path fill="#F9F9FA" opacity="1.000000" stroke="none" 
	d="
M203.641220,135.838760 
	C203.927658,136.110382 203.960983,136.487656 204.004837,137.148590 
	C203.597977,137.526443 203.180603,137.620651 202.434723,137.709564 
	C202.533493,137.117645 202.960800,136.531021 203.641220,135.838760 
z"/>
<path fill="#FCFCFC" opacity="1.000000" stroke="none" 
	d="
M400.953613,62.353802 
	C401.470673,62.069004 402.230316,62.034874 403.369141,61.999550 
	C403.798523,62.181969 403.848755,62.365578 403.897186,62.836502 
	C402.995667,62.950699 402.095917,62.777584 400.953613,62.353802 
z"/>
<path fill="#F9F9FA" opacity="1.000000" stroke="none" 
	d="
M271.644165,100.789001 
	C271.061615,100.969002 270.564911,100.932564 269.697266,100.828011 
	C269.909393,100.545387 270.492401,100.330872 271.407196,100.111664 
	C271.738953,100.106964 271.730011,100.572563 271.644165,100.789001 
z"/>
<path fill="#FBFBFB" opacity="1.000000" stroke="none" 
	d="
M152.309143,268.338104 
	C152.557266,268.470734 152.777313,268.862946 153.005783,269.486877 
	C152.769821,269.344940 152.525436,268.971313 152.309143,268.338104 
z"/>
<path fill="#727272" opacity="1.000000" stroke="none" 
	d="
M141.255157,118.943726 
	C140.998352,118.837639 140.990875,118.659164 141.006332,118.213730 
	C141.029251,117.946770 141.469696,117.950256 141.689392,117.956024 
	C141.774231,118.264969 141.639374,118.568146 141.255157,118.943726 
z"/>
<path fill="#727272" opacity="1.000000" stroke="none" 
	d="
M140.346069,120.025124 
	C140.267441,119.848610 140.405991,119.536743 140.780411,119.112244 
	C140.865265,119.296333 140.714249,119.593056 140.346069,120.025124 
z"/>
<path fill="#FBFBFB" opacity="1.000000" stroke="none" 
	d="
M403.237122,251.848633 
	C403.096161,251.556412 403.233795,251.359406 403.587524,251.113007 
	C403.746216,251.023529 403.901428,251.425537 403.906616,251.640350 
	C403.911835,251.855179 403.458405,251.903763 403.237122,251.848633 
z"/>
<path fill="#646464" opacity="1.000000" stroke="none" 
	d="
M19.740444,18.024321 
	C19.088673,20.520975 17.878653,23.015564 17.869408,25.514593 
	C17.743744,59.477833 17.797962,93.441704 17.766518,127.405373 
	C17.762754,131.469742 18.673525,134.991638 22.472652,137.629272 
	C18.041393,138.843140 17.045738,135.319275 15.933647,132.353485 
	C15.317014,130.709000 15.434537,128.742493 15.433173,126.920975 
	C15.407986,93.268753 15.389688,59.616459 15.458241,25.964354 
	C15.464334,22.973705 14.545679,19.427927 18.804226,17.656715 
	C19.370840,17.752401 19.550182,17.895218 19.740444,18.024321 
z"/>
<path fill="#212121" opacity="1.000000" stroke="none" 
	d="
M133.995422,15.562826 
	C132.006042,15.444334 130.016724,15.223826 128.027267,15.222552 
	C94.730179,15.201220 61.433041,15.198024 28.135965,15.232910 
	C26.356817,15.234774 24.578058,15.608782 22.344534,15.662327 
	C21.596956,15.342146 21.303963,15.169187 21.010969,14.996227 
	C22.661263,14.538617 24.310923,13.684427 25.961945,13.681782 
	C61.164421,13.625379 96.367058,13.663795 131.569656,13.692903 
	C132.063828,13.693312 132.557922,13.810338 133.504486,14.337503 
	C133.969772,15.055657 133.982605,15.309242 133.995422,15.562826 
z"/>
<path fill="#727272" opacity="1.000000" stroke="none" 
	d="
M134.189270,15.805351 
	C133.982605,15.309242 133.969772,15.055657 133.965942,14.421314 
	C138.282654,14.594040 139.550766,17.900169 140.646973,21.735804 
	C140.280273,22.055826 139.890656,22.022776 139.207672,22.000130 
	C137.403915,20.022982 135.893509,18.035429 134.189270,15.805351 
z"/>
<path fill="#F4F4F4" opacity="1.000000" stroke="none" 
	d="
M20.714184,15.125619 
	C21.303963,15.169187 21.596956,15.342146 21.939098,15.775810 
	C21.442232,16.639467 20.896217,17.242418 20.045322,17.934845 
	C19.550182,17.895218 19.370840,17.752401 19.084900,17.471870 
	C19.450718,16.650248 19.934057,15.952629 20.714184,15.125619 
z"/>
<path fill="#646464" opacity="1.000000" stroke="none" 
	d="
M23.556519,137.710663 
	C23.937489,138.075974 23.935909,138.293594 23.923830,138.837524 
	C23.439489,139.022430 22.965647,138.880997 22.476795,138.354645 
	C22.699183,137.834137 22.936575,137.698547 23.556519,137.710663 
z"/>
<path fill="#FBFBFB" opacity="1.000000" stroke="none" 
	d="
M269.029205,284.739136 
	C268.750305,284.948456 268.499542,284.817291 268.162750,284.437195 
	C268.364471,284.333191 268.691345,284.403351 269.029205,284.739136 
z"/>
</svg>